<?xml version="1.0" standalone="no"?>
<!DOCTYPE svg PUBLIC "-//W3C//DTD SVG 1.1//EN" "http://www.w3.org/Graphics/SVG/1.1/DTD/svg11.dtd" >
<svg xmlns="http://www.w3.org/2000/svg" xmlns:xlink="http://www.w3.org/1999/xlink" version="1.1">
<metadata></metadata>
<defs>
<font id="antonregular" horiz-adv-x="970" >
<font-face units-per-em="2048" ascent="1638" descent="-410" />
<missing-glyph horiz-adv-x="479" />
<glyph unicode="&#xfb01;" horiz-adv-x="1071" d="M104 1161h-63l2 273h61v102q0 242 242 242q115 0 184 -29v-221q-20 6 -32 6q-29 0 -37 -20.5t-8 -61.5v-18h77v-277h-69v-1157h-357v1161zM643 1599v250h358v-250h-358zM643 0v1499h358v-1499h-358z" />
<glyph unicode="&#xfb02;" horiz-adv-x="1081" d="M104 1161h-63l2 273h61v102q0 242 242 242q115 0 184 -29v-221q-20 6 -32 6q-29 0 -37 -20.5t-8 -61.5v-18h77v-277h-69v-1157h-357v1161zM645 0v1769h364v-1769h-364z" />
<glyph horiz-adv-x="0" />
<glyph unicode="&#xd;" horiz-adv-x="479" />
<glyph horiz-adv-x="0" />
<glyph horiz-adv-x="0" />
<glyph horiz-adv-x="600" />
<glyph unicode="&#x9;" horiz-adv-x="600" />
<glyph unicode="&#xa;" horiz-adv-x="600" />
<glyph unicode=" "  horiz-adv-x="479" />
<glyph unicode="&#x09;" horiz-adv-x="479" />
<glyph unicode="&#xa0;" horiz-adv-x="479" />
<glyph unicode="!" horiz-adv-x="468" d="M125 479l-70 1280h359l-72 -1280h-217zM55 0v299h359v-299h-359z" />
<glyph unicode="&#x22;" horiz-adv-x="878" d="M141 1124l-100 635h352l-76 -635h-176zM582 1124l-101 635h353l-76 -635h-176z" />
<glyph unicode="#" horiz-adv-x="1118" d="M39 0l98 510h-94v231h139l29 146h-111v231h156l92 475h285l-94 -475h166l94 475h282l-92 -475h92v-231h-137l-29 -146h109v-231h-154l-100 -510h-283l101 510h-168l-98 -510h-283zM467 741h166l26 146h-165z" />
<glyph unicode="$" horiz-adv-x="946" d="M385 37q-186 20 -268 128.5t-82 321.5v56h348v-41q0 -156 92 -156q41 0 62.5 32t21.5 79q0 35 -61 102l-287 291q-160 156 -160 342q0 145 95.5 242.5t238.5 124.5v120h172v-118q170 -20 259 -139t89 -316h-356l-2 84q-2 27 -26.5 48.5t-55.5 21.5q-35 0 -59.5 -21.5 t-24.5 -56.5q0 -49 98 -148l281 -276q68 -66 109.5 -154t41.5 -190q0 -162 -98 -261.5t-256 -117.5v-148h-172v150z" />
<glyph unicode="%" horiz-adv-x="2164" d="M659 0l541 1767h324l-541 -1767h-324zM145.5 641q-102.5 113 -102.5 307v363q0 203 97.5 310.5t291.5 107.5q197 0 295 -108t98 -310v-363q0 -195 -103.5 -307.5t-289.5 -112.5q-184 0 -286.5 113zM498.5 819.5q27.5 28.5 27.5 69.5v485q0 66 -19.5 96.5t-74.5 30.5 t-73.5 -30.5t-18.5 -96.5v-485q0 -41 26.5 -69.5t65.5 -28.5t66.5 28.5zM1442.5 95.5q-103.5 113.5 -103.5 305.5v365q0 205 97.5 311.5t294.5 106.5q195 0 293 -107.5t98 -310.5v-365q0 -193 -103.5 -306t-287.5 -113q-185 0 -288.5 113.5zM1796 272.5q27 28.5 27 69.5v487 q0 66 -18.5 96.5t-73.5 30.5t-75 -31.5t-20 -95.5v-487q0 -41 28 -69.5t67 -28.5q38 0 65 28.5z" />
<glyph unicode="&#x26;" horiz-adv-x="1034" d="M117 92.5q-82 112.5 -82 292.5q0 201 57.5 322.5t179.5 214.5q-100 197 -100 340q0 150 97.5 234.5t250.5 84.5q152 0 249 -81t97 -226q0 -213 -235 -400l63 -149q57 152 172 236l140 -218q-121 -94 -197 -311l178 -432h-340l-37 96q-43 -51 -109.5 -83.5t-144.5 -32.5 q-157 0 -239 112.5zM557 1128q20 23 36.5 65t16.5 81q0 61 -59 61q-25 0 -39 -17.5t-14 -43.5q0 -53 43 -164zM477.5 265.5q26.5 29.5 34.5 68.5l-121 291l-12 -19q-16 -25 -26.5 -78t-10.5 -104v-10q0 -80 12.5 -129t57.5 -49q39 0 65.5 29.5z" />
<glyph unicode="'" horiz-adv-x="438" d="M141 1124l-100 635h352l-76 -635h-176z" />
<glyph unicode="(" horiz-adv-x="595" d="M287.5 63.5q-115.5 73.5 -177 202.5t-61.5 295v623q0 274 127 421.5t383 155.5v-268q-74 -12 -105.5 -59.5t-31.5 -137.5v-845q0 -72 38 -119t99 -64v-284q-156 6 -271.5 79.5z" />
<glyph unicode=")" horiz-adv-x="595" d="M37 268q61 16 99 63.5t38 119.5v845q0 90 -31.5 137.5t-105.5 59.5v268q256 -8 383 -155.5t127 -421.5v-623q0 -168 -61.5 -296t-177 -201.5t-271.5 -79.5v284z" />
<glyph unicode="*" horiz-adv-x="925" d="M346 741l45 301l-239 -188l-115 201l272 116l-272 109l115 201l237 -181l-43 293h234l-35 -286l229 174l117 -201l-277 -109l277 -116l-117 -201l-231 182l37 -295h-234z" />
<glyph unicode="+" horiz-adv-x="727" d="M248 301v209h-207v231h207v207h231v-207h209v-231h-209v-209h-231z" />
<glyph unicode="," horiz-adv-x="483" d="M117 -236l65 236h-127v299h373v-289l-100 -246h-211z" />
<glyph unicode="-" horiz-adv-x="636" d="M59 510v231h516v-231h-516z" />
<glyph unicode="." horiz-adv-x="468" d="M55 0v299h359v-299h-359z" />
<glyph unicode="/" horiz-adv-x="829" d="M29 0l409 1767h365l-412 -1767h-362z" />
<glyph unicode="0" horiz-adv-x="1011" d="M162 110q-121 126 -121 359v795q0 250 116.5 381t348.5 131q233 0 350 -131.5t117 -380.5v-795q0 -236 -121 -360.5t-346 -124.5q-223 0 -344 126zM569.5 343q24.5 36 24.5 85v868q0 76 -17.5 116t-70.5 40t-69.5 -40t-16.5 -116v-868q0 -49 23.5 -85t62.5 -36t63.5 36z " />
<glyph unicode="1" horiz-adv-x="677" d="M242 1356q-35 -43 -97.5 -69.5t-119.5 -26.5v280q90 14 179 71.5t128 149.5h282v-1761h-372v1356z" />
<glyph unicode="2" horiz-adv-x="1011" d="M61 84q0 121 38 223.5t93.5 184t145.5 192.5q92 115 146.5 194.5t92 183t37.5 224.5q0 72 -20.5 112t-73.5 40q-88 0 -88 -158v-215h-371l-4 109q0 201 41 329.5t143.5 196t282.5 67.5q221 0 342 -123.5t121 -351.5q0 -145 -40 -263t-98 -206t-155 -207 q-70 -84 -116 -149.5t-82 -134.5h479v-332h-914v84z" />
<glyph unicode="3" horiz-adv-x="1011" d="M145.5 101.5q-106.5 121.5 -106.5 371.5v184h360v-184q0 -80 20.5 -124t82.5 -44q43 0 62.5 31t23.5 73t4 121v43q0 227 -150 228q-27 0 -34 -2v315q94 0 141 42t47 134q0 150 -86 150q-53 0 -68.5 -27t-20.5 -67.5t-7 -59.5v-53h-365l-2 61q2 242 114.5 355.5 t346.5 113.5q449 0 448 -469q0 -137 -36.5 -218t-126.5 -113q74 -37 109.5 -91.5t47 -132t11.5 -209.5q0 -272 -114 -411t-364 -139q-231 0 -337.5 121.5z" />
<glyph unicode="4" horiz-adv-x="1011" d="M541 0v279h-523v274l332 1208h549v-1190h94v-292h-94v-279h-358zM332 571h209v887z" />
<glyph unicode="5" horiz-adv-x="1011" d="M170 78.5q-125 103.5 -125 306.5v260h367v-149q0 -90 18.5 -141.5t75.5 -51.5q53 0 72.5 35t19.5 102v346q0 84 -17.5 134.5t-72.5 50.5q-100 0 -100 -146h-322v936h838v-329h-504v-248q27 35 72 57.5t102 22.5q221 0 302 -156t81 -440q0 -236 -34 -382.5t-136 -228.5 t-301 -82q-211 0 -336 103.5z" />
<glyph unicode="6" horiz-adv-x="1011" d="M243.5 45q-104.5 61 -147.5 184t-43 320v475q0 272 34 429t138.5 240t313.5 83q115 0 211 -39t153.5 -117t57.5 -188v-191h-340v37q0 90 -15.5 139t-73.5 49q-57 0 -80.5 -30.5t-23.5 -94.5v-354q25 49 76 77t121 28q143 0 222 -57.5t109.5 -170t30.5 -295.5 q0 -281 -106.5 -433t-352.5 -152q-180 0 -284.5 61zM586.5 351q15.5 44 15.5 145v141q0 143 -82 143q-92 0 -92 -125v-217q0 -131 88 -131q55 0 70.5 44z" />
<glyph unicode="7" horiz-adv-x="1011" d="M236.5 528.5q72.5 245.5 201.5 569.5q41 102 60 153l69 185h-497v325h888v-262q-10 -96 -41.5 -183t-89.5 -212q-45 -94 -69 -158q-88 -227 -143.5 -457.5t-71.5 -488.5h-398q19 283 91.5 528.5z" />
<glyph unicode="8" horiz-adv-x="1011" d="M154.5 119q-109.5 137 -109.5 405v117q0 139 34 221t118 123q-80 33 -115 108.5t-35 194.5v47q0 229 116 338t343 109q231 0 345 -110.5t114 -350.5q0 -135 -33 -218t-117 -120q94 -45 123 -140t29 -274q0 -35 -2 -45q0 -268 -108.5 -405t-350.5 -137t-351.5 137z M598 1303q0 66 -21.5 110.5t-70.5 44.5t-70.5 -45t-21.5 -110q0 -168 92 -168t92 168zM602 504l-2 88q0 100 -16.5 161.5t-77.5 61.5q-51 0 -73.5 -54t-22.5 -134q0 -35 2 -52v-16l-2 -55q0 -174 96 -174t96 174z" />
<glyph unicode="9" horiz-adv-x="1032" d="M290 23.5q-95 39.5 -152.5 117.5t-57.5 189v188h338v-35q0 -88 16.5 -139t71.5 -51q57 0 80.5 31.5t23.5 95.5v352q-25 -47 -76 -75.5t-120 -28.5q-143 0 -222 57t-110 170t-31 297q0 281 106.5 432.5t352.5 151.5q180 0 284.5 -61.5t147.5 -184.5t43 -320v-475 q0 -272 -32.5 -428.5t-137 -239.5t-315.5 -83q-115 0 -210 39.5zM610 1104v219q0 129 -88 129q-55 0 -70.5 -44t-15.5 -142v-144q0 -143 82 -143q92 0 92 125z" />
<glyph unicode=":" horiz-adv-x="495" d="M68 977v297h358v-297h-358zM68 238v297h358v-297h-358z" />
<glyph unicode=";" horiz-adv-x="501" d="M66 977v297h358v-297h-358zM127 0l66 236h-127v299h374v-289l-102 -246h-211z" />
<glyph unicode="&#x3c;" horiz-adv-x="657" d="M604 201l-569 344v413l569 342v-360l-342 -190l342 -193v-356z" />
<glyph unicode="=" horiz-adv-x="636" d="M61 893v223h514v-223h-514zM61 510v231h514v-231h-514z" />
<glyph unicode="&#x3e;" horiz-adv-x="657" d="M53 201v356l342 193l-342 190v360l570 -342v-413z" />
<glyph unicode="?" horiz-adv-x="1007" d="M127 870q184 0 281.5 28t144.5 118t47 278q0 76 -18.5 119t-73.5 43q-57 0 -75.5 -49t-18.5 -135v-148h-367v254q0 197 125 297.5t336 100.5q256 0 363.5 -136.5t107.5 -412.5q0 -270 -132 -436t-386 -166v-170h-334v415zM117 0v299h356v-299h-356z" />
<glyph unicode="@" horiz-adv-x="1769" d="M481.5 -61.5q-192.5 96.5 -305.5 305.5t-113 532q0 313 102.5 537.5t297 343.5t465.5 119q383 0 583.5 -234.5t200.5 -658.5q0 -299 -92 -453t-291 -154q-137 0 -211 55.5t-110 160.5q-18 -96 -68.5 -151.5t-128.5 -55.5q-141 0 -221 142t-80 347q0 238 67.5 381 t221.5 143q68 0 115 -35.5t87 -103.5l39 131h228v-641q0 -143 88 -143q63 0 86.5 89t23.5 282q0 324 -119.5 491.5t-396.5 167.5q-293 0 -446.5 -195.5t-153.5 -566.5q0 -340 156 -518t428 -178q88 0 266 20l31 -225q-180 -31 -311 -31q-246 0 -438.5 96.5zM963.5 575 q17.5 43 17.5 107v391q-63 0 -97 -25.5t-49.5 -87t-15.5 -178.5q0 -104 19.5 -177t64.5 -73q43 0 60.5 43z" />
<glyph unicode="A" horiz-adv-x="993" d="M31 0l170 1759h596l168 -1759h-334l-25 285h-213l-20 -285h-342zM420 565h160l-78 895h-17z" />
<glyph unicode="B" horiz-adv-x="980" d="M78 1759h477q193 0 280 -94t87 -307v-78q0 -252 -181 -301q111 -29 156 -133.5t45 -276.5q0 -281 -84 -425t-303 -144h-477v1759zM494 1098q45 0 61 33.5t16 95.5v176q0 86 -75 86h-74v-391h72zM594 440v219q0 80 -23.5 121t-83.5 41h-65v-510l35 -2q137 0 137 131z" />
<glyph unicode="C" d="M179 104.5q-116 120.5 -116 331.5v811q0 262 104.5 395.5t328.5 133.5q195 0 313.5 -106.5t118.5 -307.5v-303h-350v260q0 76 -18.5 104.5t-63.5 28.5q-47 0 -64.5 -33t-17.5 -96v-883q0 -70 20.5 -101.5t61.5 -31.5q82 0 82 133v318h354v-332q0 -442 -445 -442 q-192 0 -308 120.5z" />
<glyph unicode="D" horiz-adv-x="1009" d="M78 1759h485q188 0 282.5 -104.5t96.5 -308.5l4 -824q2 -260 -90 -391t-305 -131h-473v1759zM494 311q96 0 96 95v907q0 59 -9.5 89t-34 40t-75.5 10h-39v-1141h62z" />
<glyph unicode="E" horiz-adv-x="843" d="M78 0v1759h704v-340h-346v-342h332v-332h-332v-403h369v-342h-727z" />
<glyph unicode="F" horiz-adv-x="817" d="M78 0v1759h704v-342h-350v-280h332v-338h-332v-799h-354z" />
<glyph unicode="G" horiz-adv-x="993" d="M156.5 118q-93.5 134 -93.5 406v758q0 244 109 369t324 125q174 0 270 -70t133 -203t37 -342h-344v158q0 63 -17.5 98t-62.5 35q-100 0 -100 -131v-852q0 -80 20.5 -121t71.5 -41t71.5 41t20.5 121v252h-94v303h430v-1024h-141l-60 147q-94 -164 -291 -163 q-190 0 -283.5 134z" />
<glyph unicode="H" horiz-adv-x="1021" d="M78 0v1759h350v-629h166v629h350v-1759h-350v799h-166v-799h-350z" />
<glyph unicode="I" horiz-adv-x="464" d="M61 0v1759h340v-1759h-340z" />
<glyph unicode="J" horiz-adv-x="954" d="M250 31q-98 47 -154.5 138t-56.5 220v440h346v-419q0 -47 19.5 -75t60.5 -28q39 0 58.5 25.5t19.5 73.5v1353h354v-1319q0 -137 -54.5 -240.5t-151.5 -159.5t-222 -56q-121 0 -219 47z" />
<glyph unicode="K" horiz-adv-x="966" d="M78 0v1759h348v-704l164 704h354l-196 -805l237 -954h-364l-193 852v-852h-350z" />
<glyph unicode="L" horiz-adv-x="813" d="M78 0v1759h352v-1460h363v-299h-715z" />
<glyph unicode="M" horiz-adv-x="1527" d="M78 0v1759h536l148 -1073l147 1073h541v-1759h-322v1268l-202 -1268h-316l-215 1268v-1268h-317z" />
<glyph unicode="N" horiz-adv-x="1019" d="M78 0v1759h362l162 -841v841h340v-1759h-344l-176 881v-881h-344z" />
<glyph unicode="O" horiz-adv-x="995" d="M174 114q-111 130 -111 365v838q0 227 111 343t324 116t323.5 -116t110.5 -343v-838q0 -238 -110.5 -366.5t-323.5 -128.5t-324 130zM561.5 348q16.5 41 16.5 115v860q0 57 -15.5 93t-62.5 36q-88 0 -88 -133v-858q0 -76 18.5 -115t67.5 -39q47 0 63.5 41z" />
<glyph unicode="P" horiz-adv-x="966" d="M78 1759h465q211 0 301 -136t90 -398t-80 -395.5t-287 -133.5h-143v-696h-346v1759zM444 1014q63 0 93 23.5t39.5 67.5t9.5 126q0 111 -24.5 160t-98.5 49h-39v-426h20z" />
<glyph unicode="Q" horiz-adv-x="1011" d="M575 -2q-78 -14 -88 -14q-213 0 -323.5 121.5t-110.5 357.5v850q0 227 111.5 345t322.5 118t323 -118t112 -345v-850q0 -217 -99 -344l152 -96l-119 -209zM553 356.5q14 49.5 14 126.5v824q0 68 -17.5 106.5t-64.5 38.5q-84 0 -84 -143v-832q0 -74 16.5 -122t69.5 -48 q52 0 66 49.5z" />
<glyph unicode="R" horiz-adv-x="976" d="M78 1759h540q129 0 200 -58.5t95.5 -163.5t24.5 -269q0 -150 -39 -234t-135 -116q80 -16 115.5 -80t35.5 -172l-4 -666h-344v688q0 74 -28.5 94.5t-104.5 20.5v-803h-356v1759zM520 1108q74 0 74 160q0 70 -6 104.5t-22.5 48t-47.5 13.5h-82v-326h84z" />
<glyph unicode="S" horiz-adv-x="944" d="M149.5 102.5q-106.5 118.5 -106.5 382.5v172h346v-219q0 -131 84 -131q47 0 65.5 27.5t18.5 93.5q0 86 -20.5 142.5t-52 94t-113.5 117.5l-152 152q-176 172 -176 381q0 225 103.5 343t302.5 118q238 0 342 -126t104 -395h-358l-2 121q0 35 -19.5 55.5t-54.5 20.5 q-41 0 -61.5 -22.5t-20.5 -61.5q0 -86 98 -178l205 -197q72 -70 119 -132t75.5 -147t28.5 -202q0 -260 -95 -394t-314 -134q-240 0 -346.5 118.5z" />
<glyph unicode="T" horiz-adv-x="811" d="M229 0v1421h-209v338h771v-338h-209v-1421h-353z" />
<glyph unicode="U" d="M162.5 106.5q-105.5 122.5 -105.5 364.5v1288h342v-1274q0 -84 16.5 -131t69.5 -47t69.5 46t16.5 132v1274h342v-1288q0 -242 -105.5 -364.5t-322.5 -122.5t-322.5 122.5z" />
<glyph unicode="V" horiz-adv-x="960" d="M240 0l-217 1761h335l129 -1198l115 1198h336l-217 -1761h-481z" />
<glyph unicode="W" horiz-adv-x="1458" d="M215 0l-188 1759h344l98 -1110l98 1110h328l94 -1110l94 1110h349l-193 -1759h-422l-88 848l-84 -848h-430z" />
<glyph unicode="X" horiz-adv-x="991" d="M27 0l188 934l-149 827h344l92 -606l80 606h346l-152 -827l189 -934h-357l-110 688l-113 -688h-358z" />
<glyph unicode="Y" horiz-adv-x="913" d="M291 0v580l-281 1179h348l99 -596l98 596h348l-280 -1179v-580h-332z" />
<glyph unicode="Z" horiz-adv-x="839" d="M33 0v319l401 1117h-362v323h735v-307l-412 -1128h393v-324h-755z" />
<glyph unicode="[" horiz-adv-x="651" d="M61 0v1761h555v-280h-202v-1200h202v-281h-555z" />
<glyph unicode="\" horiz-adv-x="829" d="M438 0l-411 1767h364l410 -1767h-363z" />
<glyph unicode="]" horiz-adv-x="651" d="M35 0v281h203v1200h-203v280h555v-1761h-555z" />
<glyph unicode="^" d="M41 432l240 924h407l242 -924h-359l-86 594l-86 -594h-358z" />
<glyph unicode="_" horiz-adv-x="747" d="M49 -362v233h651v-233h-651z" />
<glyph unicode="`" horiz-adv-x="649" d="M537 1552l-476 95v348l476 -219v-224z" />
<glyph unicode="a" horiz-adv-x="989" d="M105.5 99.5q-64.5 115.5 -64.5 330.5q0 176 46 270.5t128 138.5t250 97l98 33v4v149q0 59 -23.5 91t-56.5 32q-29 0 -50 -26.5t-21 -71.5v-90h-349v49q0 221 103.5 315.5t337.5 94.5q186 0 303 -97.5t117 -275.5v-1143h-357v178q-27 -92 -85 -143t-138 -51 q-174 0 -238.5 115.5zM543.5 296q17.5 34 17.5 83v418q-80 -31 -117.5 -78t-37.5 -131v-193q0 -133 79 -133q41 0 58.5 34z" />
<glyph unicode="b" horiz-adv-x="1026" d="M440 160v-160h-368v1769h368v-342q86 88 201 89q174 0 250 -103.5t76 -298.5v-723q0 -184 -78 -295.5t-238 -111.5q-148 0 -211 176zM582.5 285.5q15.5 23.5 18.5 59.5t3 112v624q0 80 -14.5 119t-61.5 39q-51 0 -69.5 -39t-18.5 -115v-628q0 -98 16.5 -146.5t73.5 -48.5 q37 0 52.5 23.5z" />
<glyph unicode="c" horiz-adv-x="1005" d="M167.5 108.5q-108.5 124.5 -108.5 383.5v462q0 195 42 317t141.5 183.5t275.5 61.5q193 0 313.5 -100.5t120.5 -280.5v-230h-364v211q0 59 -16.5 91t-63.5 32q-88 0 -88 -125v-727q0 -51 21.5 -87t64.5 -36t64.5 35t19.5 90l-2 252h364v-262q0 -184 -119.5 -289.5 t-310.5 -105.5q-246 0 -354.5 124.5z" />
<glyph unicode="d" horiz-adv-x="1019" d="M169 46.5q-67 62.5 -88.5 165.5t-21.5 265l4 676q0 160 81 261.5t229 101.5q145 0 217 -97v350h358v-1769h-358v160q-31 -88 -83 -132t-140 -44q-131 0 -198 62.5zM573.5 316.5q16.5 52.5 16.5 140.5v63v563q0 66 -18.5 111t-65.5 45q-53 0 -70.5 -42t-17.5 -114v-630 q0 -188 86 -189q53 0 69.5 52.5z" />
<glyph unicode="e" horiz-adv-x="999" d="M159.5 111q-100.5 127 -100.5 378v603q0 207 119 315.5t332 108.5q432 0 432 -424v-109q0 -164 -4 -266h-520v-291q0 -78 16.5 -122t69.5 -44q41 0 58.5 24.5t20.5 56.5t3 93v146h356v-86q0 -262 -101.5 -386t-348.5 -124q-232 0 -332.5 127zM586 895v192q0 162 -80 162 q-90 0 -90 -162v-192h170z" />
<glyph unicode="f" horiz-adv-x="573" d="M104 1161h-63l2 273h61v102q0 242 242 242q115 0 184 -29v-221q-20 6 -32 6q-29 0 -37 -20.5t-8 -61.5v-18h77v-277h-69v-1157h-357v1161z" />
<glyph unicode="g" horiz-adv-x="1032" d="M224 -193.5q-91 25.5 -179 97.5l123 207q131 -78 260 -78q84 0 127 53t43 145v82q-43 -154 -227 -153q-154 0 -226.5 104.5t-72.5 278.5v563q0 199 66.5 304.5t232.5 105.5q96 0 152.5 -48.5t74.5 -136.5v168h367v-1245q0 -252 -117 -362.5t-373 -110.5q-160 0 -251 25.5 zM598 582v534q0 45 -24.5 86t-61.5 41q-47 0 -63.5 -33.5t-16.5 -93.5v-534q0 -68 16.5 -110t65.5 -42q84 0 84 152z" />
<glyph unicode="h" horiz-adv-x="1034" d="M72 1769h368v-417q57 164 219 164q152 0 230 -96.5t78 -264.5v-1155h-359v1133q0 49 -22.5 79.5t-65.5 30.5q-37 0 -58.5 -31.5t-21.5 -76.5v-1135h-368v1769z" />
<glyph unicode="i" horiz-adv-x="497" d="M70 1599v250h358v-250h-358zM70 0v1499h358v-1499h-358z" />
<glyph unicode="j" horiz-adv-x="538" d="M111 1599v250h358v-250h-358zM35 -150v240q10 -4 33 -4q27 0 35 17.5t8 52.5v1343h358v-1333q0 -166 -67.5 -254t-215.5 -88q-116 -1 -151 26z" />
<glyph unicode="k" horiz-adv-x="1005" d="M72 0v1769h354v-786l172 516h371l-226 -651l287 -848h-381l-223 707v-707h-354z" />
<glyph unicode="l" horiz-adv-x="507" d="M72 0v1769h364v-1769h-364z" />
<glyph unicode="m" horiz-adv-x="1552" d="M72 1499h350v-174q25 96 84 143.5t168 47.5q88 0 152.5 -40t91.5 -110q45 78 100 114t153 36q176 0 245 -108t69 -312l-4 -1096h-361v1102q0 145 -73 145q-51 0 -74 -50t-23 -120v-1077h-358v1102q0 63 -13.5 102t-56.5 39q-55 0 -77.5 -54t-22.5 -130v-1059h-350v1499z " />
<glyph unicode="n" horiz-adv-x="1021" d="M72 1499h358v-190q23 92 78 149.5t147 57.5q152 0 224.5 -93.5t72.5 -265.5v-1157h-352v1120q0 49 -19.5 84t-60.5 35q-55 0 -72.5 -50t-17.5 -134v-1055h-358v1499z" />
<glyph unicode="o" horiz-adv-x="1017" d="M59 449v602q0 213 120 339t329 126t328.5 -126t119.5 -339v-602q0 -465 -448 -465q-449 0 -449 465zM571.5 291q20.5 31 20.5 84v733q0 131 -84 131t-84 -131v-733q0 -53 20.5 -84t63.5 -31t63.5 31z" />
<glyph unicode="p" horiz-adv-x="1024" d="M72 1499h364v-80q78 96 215 97q174 0 243 -117t69 -324v-555q0 -176 -20.5 -287.5t-90.5 -180t-211 -68.5q-135 0 -205 75v-358h-364v1798zM585.5 307q14.5 45 14.5 131v637q0 78 -14.5 119t-65.5 41q-84 0 -84 -156v-657q0 -76 17.5 -118t68.5 -42q49 0 63.5 45z" />
<glyph unicode="q" horiz-adv-x="1024" d="M586 90q-35 -47 -87.5 -76.5t-117.5 -29.5q-139 0 -209 60t-91.5 163.5t-21.5 273.5v594q0 207 70 324t242 117q137 0 215 -97v80h364v-1798h-364v389zM568.5 304q17.5 42 17.5 118v657q0 156 -84 156q-51 0 -65.5 -42t-14.5 -118v-637q0 -86 14.5 -131t63.5 -45 q51 0 68.5 42z" />
<glyph unicode="r" horiz-adv-x="704" d="M72 1499h358v-166q27 88 93.5 136.5t164.5 48.5v-299q-76 0 -167 -21.5t-91 -50.5v-1147h-358v1499z" />
<glyph unicode="s" horiz-adv-x="972" d="M39 434l2 119h358l2 -176q0 -53 20.5 -81t67.5 -28q72 0 72 117q0 86 -33.5 135t-107.5 105l-191 147q-98 76 -141 157t-43 228q0 115 60.5 196t161 122t222.5 41q436 0 437 -435v-28h-371v57q0 53 -17.5 91t-58.5 38q-37 0 -56.5 -21.5t-19.5 -58.5q0 -82 64 -127 l221 -162q119 -88 182.5 -191.5t63.5 -260.5q0 -209 -119 -321.5t-332 -112.5q-444 -1 -444 450z" />
<glyph unicode="t" horiz-adv-x="624" d="M186.5 43q-53.5 59 -53.5 190v936h-100v273h100v317h348v-317h103v-273h-103v-841q0 -39 6.5 -57.5t32.5 -18.5q20 0 39 2t25 2v-246q-31 -8 -89.5 -17t-113.5 -9q-141 0 -194.5 59z" />
<glyph unicode="u" horiz-adv-x="1021" d="M130.5 84q-62.5 100 -62.5 299v1116h360v-1044v-77t19.5 -88.5t60.5 -25.5q55 0 69.5 46t14.5 132v13l2 1044h356v-1499h-358v160q-37 -94 -86 -135t-146 -41q-167 0 -229.5 100z" />
<glyph unicode="v" horiz-adv-x="944" d="M262 0l-239 1499h358l74 -758l12 -243l14 245l82 756h359l-244 -1499h-416z" />
<glyph unicode="w" horiz-adv-x="1425" d="M229 0l-182 1499h307l101 -805l86 805h313l102 -805l84 805h338l-192 -1499h-359l-106 852l-94 -852h-398z" />
<glyph unicode="x" horiz-adv-x="940" d="M932 0h-359l-151 422l-143 -422h-271l275 805l-250 696h364l129 -364l127 364h267l-258 -741z" />
<glyph unicode="y" horiz-adv-x="944" d="M43 -23h172q37 0 37 31q0 14 -2 23l-234 1468h342l68 -731l33 -373l39 373l80 731h344l-279 -1577q-14 -88 -58 -130t-139 -42h-403v227z" />
<glyph unicode="z" horiz-adv-x="790" d="M29 0v219l372 998h-356v282h727v-244l-352 -987h356v-268h-747z" />
<glyph unicode="{" horiz-adv-x="696" d="M362.5 -150.5q-104.5 33.5 -148.5 111.5t-44 219v334q0 74 -10 114t-39 62.5t-90 28.5v196q61 6 90 29t39 63t10 113v334q0 143 44 220t148.5 111t299.5 38v-267q-70 -6 -105 -21t-35 -62v-375q0 -133 -58 -194.5t-159 -86.5q100 -25 158.5 -86t58.5 -192v-375 q0 -49 36 -64.5t104 -19.5v-268q-195 4 -299.5 37.5z" />
<glyph unicode="|" horiz-adv-x="442" d="M61 -84v2038h320v-2038h-320z" />
<glyph unicode="}" horiz-adv-x="696" d="M41 80q68 4 102.5 19.5t34.5 64.5v375q0 131 59.5 193.5t159.5 84.5q-102 23 -160.5 85.5t-58.5 195.5v375q0 47 -34.5 62t-102.5 21v267q195 -4 298 -38t147 -111t44 -220v-334q0 -106 27 -150t113 -55v-196q-86 -10 -113 -54t-27 -151v-334q0 -141 -44 -219 t-147 -111.5t-298 -37.5v268z" />
<glyph unicode="~" horiz-adv-x="1009" d="M609.5 826.5q-60.5 15.5 -146.5 43.5q-43 14 -84 26.5t-66 12.5q-61 0 -100 -73l-164 86q51 119 107.5 180t162.5 61q84 0 150 -16.5t137 -42.5q33 -12 62.5 -21.5t52.5 -9.5q61 0 100 82l183 -59q-35 -94 -65 -151.5t-80 -95.5t-128 -38q-61 0 -121.5 15.5z" />
<glyph unicode="&#xa1;" horiz-adv-x="464" d="M55 1354v297h359v-297h-359zM55 -109l70 1283h217l72 -1283h-359z" />
<glyph unicode="&#xa2;" horiz-adv-x="985" d="M422 -12q-199 23 -287 146.5t-88 357.5v462q0 268 82 403.5t293 155.5v164h174v-166q154 -23 249 -121t95 -255v-256h-365v237q0 59 -16 91t-63 32q-88 0 -88 -125v-727q0 -51 21.5 -87t64.5 -36t63.5 35t20.5 90l-3 225h365v-235q0 -164 -95 -266.5t-249 -124.5v-152 h-174v152z" />
<glyph unicode="&#xa3;" d="M43 281q68 41 102.5 73.5t53 82.5t18.5 130q0 72 -8 107h-162v231h135l-14 60q-14 57 -27.5 136t-13.5 124q0 195 108.5 289t309.5 94q207 0 298 -124t91 -360h-320q0 94 -10 141.5t-53 47.5q-29 0 -41 -17.5t-14 -48t-2 -61.5v-12q0 -51 57 -269h283v-231h-248l10 -133 q-4 -86 -43 -149.5t-98 -100.5h469v-291h-881v281z" />
<glyph unicode="&#xa4;" horiz-adv-x="999" d="M45 659l90 91q-51 96 -51 215q0 117 51 213l-90 90l150 149l86 -88q98 55 219 55q117 0 217 -53l88 86l149 -147l-90 -90q53 -100 54 -215q0 -117 -54 -217l90 -91l-149 -147l-90 88q-88 -53 -215 -53q-123 0 -217 53l-88 -88zM651.5 805.5q57.5 64.5 57.5 161.5 q0 96 -57.5 157.5t-151.5 61.5t-151.5 -63.5t-57.5 -157.5q0 -96 57.5 -160t151.5 -64t151.5 64.5z" />
<glyph unicode="&#xa5;" horiz-adv-x="948" d="M903 1759l-248 -1042h160v-174h-192v-99h192v-174h-192v-270h-332v270h-201v174h201v99h-201v174h168l-248 1042h348l99 -596l98 596h348z" />
<glyph unicode="&#xa6;" horiz-adv-x="454" d="M68 1042v912h319v-912h-319zM68 -84v881h319v-881h-319z" />
<glyph unicode="&#xa7;" horiz-adv-x="919" d="M149.5 75q-108.5 93 -108.5 292h334q6 -125 94 -125q37 0 61.5 22.5t24.5 59.5q0 43 -52 85t-159 103q-137 76 -211 139.5t-74 143.5q0 133 140 235q-139 102 -140 246q0 98 55.5 174t148.5 117t204 41q201 0 304 -94.5t103 -292.5h-305q-2 125 -92 125 q-41 0 -68.5 -21.5t-27.5 -60.5q0 -43 51 -83t158 -102q94 -57 149.5 -95t95 -87t39.5 -104q0 -131 -139 -236q139 -102 139 -244q0 -100 -54 -176t-147 -115.5t-204 -39.5q-211 0 -319.5 93zM598 780q0 70 -201 138q-51 -61 -51 -105q0 -47 56.5 -74.5t154.5 -56.5 q41 49 41 98z" />
<glyph unicode="&#xa8;" horiz-adv-x="976" d="M66 1599v297h358v-297h-358zM551 1599v297h356v-297h-356z" />
<glyph unicode="&#xa9;" horiz-adv-x="1382" d="M356.5 291q-149.5 86 -235.5 236.5t-86 334.5t86 335t235.5 237t333.5 86t335 -86t237 -236.5t86 -335.5q0 -184 -86 -334.5t-237 -236.5t-335 -86t-333.5 86zM946 404.5q115 70.5 179.5 191.5t64.5 266t-64.5 266t-179.5 192t-256 71t-254.5 -71t-178 -192.5 t-64.5 -265.5q0 -143 64.5 -265t178 -192.5t254.5 -70.5t256 70.5zM517.5 483.5q-62.5 59.5 -62.5 163.5v402q0 129 56 192.5t177 63.5q106 0 171 -51.5t65 -147.5v-154h-189v101q0 78 -47 77q-25 0 -34 -16t-9 -47v-410q0 -25 12.5 -45t30.5 -20q47 0 47 65v150h193v-164 q0 -219 -244 -219q-104 0 -166.5 59.5z" />
<glyph unicode="&#xaa;" horiz-adv-x="802" d="M95 871.5q-52 93.5 -52 263.5q0 143 39 219t107.5 112.5t209.5 83.5l60 21v2l2 69q0 59 -13.5 96.5t-50.5 37.5q-57 0 -57 -66v-80h-277q-2 10 -2 39q0 176 83 252t268 76h8q143 0 234 -79t91 -218v-907h-282v125q-12 -51 -64.5 -95.5t-111.5 -44.5q-140 0 -192 93.5z M444.5 1028q14.5 27 14.5 66v313q-63 -25 -94 -60.5t-31 -101.5v-139q0 -104 63 -105q33 0 47.5 27z" />
<glyph unicode="&#xab;" horiz-adv-x="1183" d="M549 260l-510 285v413l510 273v-361l-313 -120l313 -132v-358zM1126 260l-510 285v413l510 273v-361l-313 -120l313 -132v-358z" />
<glyph unicode="&#xac;" horiz-adv-x="827" d="M455 438v363h-418v178h729v-541h-311z" />
<glyph unicode="&#xad;" horiz-adv-x="600" d="M59 510v231h516v-231h-516z" />
<glyph unicode="&#xae;" horiz-adv-x="1382" d="M356.5 291q-149.5 86 -235.5 236.5t-86 334.5t86 335t235.5 237t333.5 86t335 -86t237 -236.5t86 -335.5q0 -184 -86 -334.5t-237 -236.5t-335 -86t-333.5 86zM946 404.5q115 70.5 179.5 191.5t64.5 266t-64.5 266t-179.5 192t-256 71t-254.5 -71t-178 -192.5 t-64.5 -265.5q0 -143 64.5 -265t178 -192.5t254.5 -70.5t256 70.5zM469 1282h289q102 0 137 -59.5t35 -180.5q0 -72 -21.5 -111.5t-72.5 -58.5q80 -14 79 -120v-322h-184v332q0 35 -15.5 45t-56.5 10v-387h-190v852zM709 965q37 0 36 77q0 53 -16 67.5t-70 14.5v-159h50z " />
<glyph unicode="&#xaf;" horiz-adv-x="1705" d="M524 1620v152h652v-152h-652z" />
<glyph unicode="&#xb0;" horiz-adv-x="796" d="M139.5 1022q-96.5 90 -96.5 248t96.5 248t257.5 90q162 0 258.5 -90.5t96.5 -247.5q0 -158 -96.5 -248t-258.5 -90q-161 0 -257.5 90zM502 1157q39 45 39 113t-39 111.5t-105 43.5q-63 0 -102 -45t-39 -110q0 -68 39 -113t102 -45q66 0 105 45z" />
<glyph unicode="&#xb1;" horiz-adv-x="733" d="M254 414v209h-209v231h209v209h231v-209h209v-231h-209v-209h-231zM86 0v231h516v-231h-516z" />
<glyph unicode="&#xb2;" horiz-adv-x="618" d="M47 848q0 86 24.5 154.5t58.5 116.5t91 114q70 80 104.5 139.5t34.5 138.5q0 82 -53 82q-51 0 -51 -86v-118h-209l-2 59q-4 170 53.5 249t210.5 79q125 0 194.5 -69t69.5 -194q0 -80 -22.5 -144t-55 -112.5t-87.5 -115.5q-82 -92 -115 -158h272v-182h-518v47z" />
<glyph unicode="&#xb3;" horiz-adv-x="610" d="M102.5 871.5q-59.5 66.5 -59.5 201.5v101h201v-101q0 -43 12 -66.5t45 -23.5q35 0 43 28.5t8 94.5q0 70 -16.5 107.5t-67.5 37.5h-20v172q53 0 78.5 22.5t25.5 74.5q0 80 -47 79q-35 0 -43 -20t-9 -49t-1 -43h-205v35q-2 133 60.5 193.5t195.5 60.5q252 0 252 -254 q0 -76 -20.5 -120t-69.5 -63q59 -27 76.5 -77t17.5 -156q0 -150 -63.5 -225.5t-204.5 -75.5q-129 0 -188.5 66.5z" />
<glyph unicode="&#xb4;" horiz-adv-x="649" d="M90 1552v224l475 219v-348z" />
<glyph unicode="&#xb5;" horiz-adv-x="1003" d="M950 1499v-1499h-358v160q-31 -78 -67 -118t-99 -52v-176h-358v1685h360v-1044v-77t19.5 -88.5t60.5 -25.5q55 0 69.5 46t14.5 132v13l2 1044h356z" />
<glyph unicode="&#xb6;" horiz-adv-x="1019" d="M379 797q-180 20 -264 118.5t-84 294.5q0 213 146.5 298t404.5 85h374v-1593h-237v1286h-94v-1286h-246v797z" />
<glyph unicode="&#xb7;" horiz-adv-x="479" d="M82 723v299h317v-299h-317z" />
<glyph unicode="&#xb8;" horiz-adv-x="1015" d="M264 -592v223q63 -23 119 -22q117 0 117 119q0 55 -28 126.5t-77 145.5h162q96 -86 150.5 -189.5t54.5 -197.5q0 -109 -75 -176.5t-224 -67.5q-103 0 -199 39z" />
<glyph unicode="&#xb9;" horiz-adv-x="421" d="M152 1518q-59 -31 -123 -31q2 43 2 110q0 39 -2 43q29 0 70.5 17.5t72.5 45.5t31 56h159v-940h-210v699z" />
<glyph unicode="&#xba;" horiz-adv-x="813" d="M49 1149v477q0 168 95.5 269.5t258.5 101.5h3q166 0 261 -100.5t95 -270.5v-477q0 -182 -89 -276.5t-267 -94.5q-357 0 -357 371zM360.5 1024q20.5 -25 49.5 -25q25 0 43 24t18 69v579q0 104 -65 105q-66 0 -66 -105v-579q0 -43 20.5 -68z" />
<glyph unicode="&#xbb;" horiz-adv-x="1183" d="M57 260v358l314 132l-314 120v361l510 -273v-413zM635 260v358l311 132l-311 120v361l510 -273v-413z" />
<glyph unicode="&#xbc;" horiz-adv-x="1667" d="M273 1518q-59 -31 -123 -31q2 43 2 110q0 39 -2 43q29 0 70.5 17.5t72.5 45.5t31 56h159v-940h-210v699zM417 -16l580 1792h285l-680 -1792h-185zM1272 0v152h-303v149l186 641h324v-618h39v-172h-39v-152h-207zM1161 324h111v444z" />
<glyph unicode="&#xbd;" horiz-adv-x="1763" d="M273 1518q-59 -31 -123 -31q2 43 2 110q0 39 -2 43q29 0 70.5 17.5t72.5 45.5t31 56h159v-940h-210v699zM428 -6l580 1792h285l-680 -1792h-185zM1087 47q0 86 24.5 154.5t58.5 116.5t91 114q70 80 104.5 139.5t34.5 138.5q0 82 -53 82q-51 0 -51 -86v-118h-209l-2 59 q-4 170 53.5 249t210.5 79q125 0 194.5 -69t69.5 -194q0 -80 -22.5 -144t-55 -112.5t-87.5 -115.5q-82 -92 -115 -158h272v-182h-518v47z" />
<glyph unicode="&#xbe;" horiz-adv-x="1748" d="M211.5 871.5q-59.5 66.5 -59.5 201.5v101h201v-101q0 -43 12 -66.5t45 -23.5q35 0 43 28.5t8 94.5q0 70 -16.5 107.5t-67.5 37.5h-20v172q53 0 78.5 22.5t25.5 74.5q0 80 -47 79q-35 0 -43 -20t-9 -49t-1 -43h-205v35q-2 133 60.5 193.5t195.5 60.5q252 0 252 -254 q0 -76 -20.5 -120t-69.5 -63q59 -27 76.5 -77t17.5 -156q0 -150 -63.5 -225.5t-204.5 -75.5q-129 0 -188.5 66.5zM516 -16l580 1792h285l-680 -1792h-185zM1356 0v152h-303v149l186 641h324v-618h39v-172h-39v-152h-207zM1245 324h111v444z" />
<glyph unicode="&#xbf;" horiz-adv-x="1009" d="M899 1647v-299h-356v299h356zM889 776q-184 0 -281.5 -27.5t-144.5 -117.5t-47 -279q0 -76 18.5 -119t73.5 -43q57 0 75.5 49.5t18.5 135.5v147h367v-254q0 -197 -125 -297t-336 -100q-256 0 -363.5 136t-107.5 413q0 270 132 436t386 166v170h334v-416z" />
<glyph unicode="&#xc0;" horiz-adv-x="993" d="M31 0l170 1759h596l168 -1759h-334l-25 285h-213l-20 -285h-342zM420 565h160l-78 895h-17zM734 1812l-476 95v348l476 -219v-224z" />
<glyph unicode="&#xc1;" horiz-adv-x="993" d="M31 0l170 1759h596l168 -1759h-334l-25 285h-213l-20 -285h-342zM420 565h160l-78 895h-17zM258 1812v224l475 219v-348z" />
<glyph unicode="&#xc2;" horiz-adv-x="993" d="M31 0l170 1759h596l168 -1759h-334l-25 285h-213l-20 -285h-342zM420 565h160l-78 895h-17zM51 1851l240 404h407l242 -404h-359l-86 285l-86 -285h-358z" />
<glyph unicode="&#xc3;" horiz-adv-x="993" d="M31 0l170 1759h596l168 -1759h-334l-25 285h-213l-20 -285h-342zM420 565h160l-78 895h-17zM556 1886q-48 14 -116 41q-33 14 -63.5 24.5t-52.5 10.5q-59 0 -92 -68l-150 78q45 111 97.5 167t150.5 56q53 0 96 -12t113 -39q74 -33 110 -33q57 0 95 74l165 -53 q-31 -86 -58.5 -138.5t-73.5 -87t-115 -34.5q-58 0 -106 14z" />
<glyph unicode="&#xc4;" horiz-adv-x="993" d="M31 0l170 1759h596l168 -1759h-334l-25 285h-213l-20 -285h-342zM420 565h160l-78 895h-17zM68 1859v297h358v-297h-358zM553 1859v297h356v-297h-356z" />
<glyph unicode="&#xc5;" horiz-adv-x="993" d="M31 0l170 1759h596l168 -1759h-334l-25 285h-213l-20 -285h-342zM420 565h160l-78 895h-17zM237.5 1930q-96.5 91 -96.5 249t96.5 248t258.5 90t258 -90t96 -248t-96.5 -249t-257.5 -91q-162 0 -258.5 91zM600 2066q39 45 39 113t-39 112t-104 44q-63 0 -102.5 -45 t-39.5 -111q0 -68 39 -113t103 -45q65 0 104 45z" />
<glyph unicode="&#xc6;" horiz-adv-x="1310" d="M-43 0l319 1759h973v-309h-286v-401h272v-299h-272v-439h309v-311h-649v479h-207l-78 -479h-381zM463 768h155v692h-57z" />
<glyph unicode="&#xc7;" d="M932 758v-332q0 -399 -363 -438q92 -84 142.5 -183.5t50.5 -191.5q0 -109 -75 -176.5t-224 -67.5q-102 0 -199 39v223q63 -23 119 -22q117 0 117 119q0 53 -25.5 121.5t-73.5 140.5q-156 27 -247 143.5t-91 302.5v811q0 262 104.5 395.5t328.5 133.5q195 0 313.5 -106.5 t118.5 -307.5v-303h-350v260q0 76 -18.5 104.5t-63.5 28.5q-47 0 -64.5 -33t-17.5 -96v-883q0 -70 20.5 -101.5t61.5 -31.5q82 0 82 133v318h354z" />
<glyph unicode="&#xc8;" horiz-adv-x="843" d="M78 0v1759h704v-340h-346v-342h332v-332h-332v-403h369v-342h-727zM682 1812l-476 95v348l476 -219v-224z" />
<glyph unicode="&#xc9;" horiz-adv-x="843" d="M78 0v1759h704v-340h-346v-342h332v-332h-332v-403h369v-342h-727zM205 1812v224l475 219v-348z" />
<glyph unicode="&#xca;" horiz-adv-x="843" d="M78 0v1759h704v-340h-346v-342h332v-332h-332v-403h369v-342h-727zM0 1851l240 404h407l242 -404h-359l-86 285l-86 -285h-358z" />
<glyph unicode="&#xcb;" horiz-adv-x="843" d="M78 0v1759h704v-340h-346v-342h332v-332h-332v-403h369v-342h-727zM17 1859v297h358v-297h-358zM502 1859v297h356v-297h-356z" />
<glyph unicode="&#xcc;" horiz-adv-x="464" d="M61 0v1759h340v-1759h-340zM469 1812l-476 95v348l476 -219v-224z" />
<glyph unicode="&#xcd;" horiz-adv-x="464" d="M61 0v1759h340v-1759h-340zM-6 1812v224l475 219v-348z" />
<glyph unicode="&#xce;" horiz-adv-x="464" d="M61 0v1759h340v-1759h-340zM-213 1851l240 404h407l242 -404h-359l-86 285l-86 -285h-358z" />
<glyph unicode="&#xcf;" horiz-adv-x="464" d="M61 0v1759h340v-1759h-340zM-196 1859v297h358v-297h-358zM289 1859v297h356v-297h-356z" />
<glyph unicode="&#xd0;" horiz-adv-x="1009" d="M856 131q-92 -131 -305 -131h-473v805h-76v231h76v723h485q188 0 282.5 -104.5t96.5 -308.5l4 -824q2 -260 -90 -391zM590 1313q0 59 -9.5 89t-34 40t-75.5 10h-39v-416h86v-231h-86v-494h62q96 0 96 95v907z" />
<glyph unicode="&#xd1;" horiz-adv-x="1019" d="M78 0v1759h362l162 -841v841h340v-1759h-344l-176 881v-881h-344zM591 1886q-48 14 -116 41q-33 14 -63.5 24.5t-52.5 10.5q-59 0 -92 -68l-150 78q45 111 97.5 167t150.5 56q53 0 96 -12t113 -39q74 -33 110 -33q57 0 95 74l165 -53q-31 -86 -58.5 -138.5t-73.5 -87 t-115 -34.5q-58 0 -106 14z" />
<glyph unicode="&#xd2;" horiz-adv-x="995" d="M174 114q-111 130 -111 365v838q0 227 111 343t324 116t323.5 -116t110.5 -343v-838q0 -238 -110.5 -366.5t-323.5 -128.5t-324 130zM561.5 348q16.5 41 16.5 115v860q0 57 -15.5 93t-62.5 36q-88 0 -88 -133v-858q0 -76 18.5 -115t67.5 -39q47 0 63.5 41zM738 1812 l-476 95v348l476 -219v-224z" />
<glyph unicode="&#xd3;" horiz-adv-x="995" d="M174 114q-111 130 -111 365v838q0 227 111 343t324 116t323.5 -116t110.5 -343v-838q0 -238 -110.5 -366.5t-323.5 -128.5t-324 130zM561.5 348q16.5 41 16.5 115v860q0 57 -15.5 93t-62.5 36q-88 0 -88 -133v-858q0 -76 18.5 -115t67.5 -39q47 0 63.5 41zM260 1812v224 l475 219v-348z" />
<glyph unicode="&#xd4;" horiz-adv-x="995" d="M174 114q-111 130 -111 365v838q0 227 111 343t324 116t323.5 -116t110.5 -343v-838q0 -238 -110.5 -366.5t-323.5 -128.5t-324 130zM561.5 348q16.5 41 16.5 115v860q0 57 -15.5 93t-62.5 36q-88 0 -88 -133v-858q0 -76 18.5 -115t67.5 -39q47 0 63.5 41zM55 1851 l240 404h407l242 -404h-359l-86 285l-86 -285h-358z" />
<glyph unicode="&#xd5;" horiz-adv-x="995" d="M174 114q-111 130 -111 365v838q0 227 111 343t324 116t323.5 -116t110.5 -343v-838q0 -238 -110.5 -366.5t-323.5 -128.5t-324 130zM561.5 348q16.5 41 16.5 115v860q0 57 -15.5 93t-62.5 36q-88 0 -88 -133v-858q0 -76 18.5 -115t67.5 -39q47 0 63.5 41zM560 1886 q-48 14 -116 41q-33 14 -63.5 24.5t-52.5 10.5q-59 0 -92 -68l-150 78q45 111 97.5 167t150.5 56q53 0 96 -12t113 -39q74 -33 110 -33q57 0 95 74l165 -53q-31 -86 -58.5 -138.5t-73.5 -87t-115 -34.5q-58 0 -106 14z" />
<glyph unicode="&#xd6;" horiz-adv-x="995" d="M174 114q-111 130 -111 365v838q0 227 111 343t324 116t323.5 -116t110.5 -343v-838q0 -238 -110.5 -366.5t-323.5 -128.5t-324 130zM561.5 348q16.5 41 16.5 115v860q0 57 -15.5 93t-62.5 36q-88 0 -88 -133v-858q0 -76 18.5 -115t67.5 -39q47 0 63.5 41zM70 1859v297 h358v-297h-358zM555 1859v297h356v-297h-356z" />
<glyph unicode="&#xd7;" horiz-adv-x="710" d="M209 313l-166 164l147 148l-147 147l166 164l145 -148l148 148l164 -164l-148 -147l148 -148l-164 -164l-148 148z" />
<glyph unicode="&#xd8;" horiz-adv-x="987" d="M928 1317v-838q0 -238 -110.5 -366.5t-323.5 -128.5q-115 0 -199 36l-55 -192l-111 41l64 221q-133 127 -134 389v838q0 227 111 343t324 116q90 0 168 -23l69 252l119 -35l-78 -270q156 -115 156 -383zM573 1323q0 57 -15 93t-62 36q-88 0 -88 -133v-858q0 -78 17 -116 t69 -38q47 0 63 41t16 115v860z" />
<glyph unicode="&#xd9;" d="M162.5 106.5q-105.5 122.5 -105.5 364.5v1288h342v-1274q0 -84 16.5 -131t69.5 -47t69.5 46t16.5 132v1274h342v-1288q0 -242 -105.5 -364.5t-322.5 -122.5t-322.5 122.5zM723 1812l-476 95v348l476 -219v-224z" />
<glyph unicode="&#xda;" d="M162.5 106.5q-105.5 122.5 -105.5 364.5v1288h342v-1274q0 -84 16.5 -131t69.5 -47t69.5 46t16.5 132v1274h342v-1288q0 -242 -105.5 -364.5t-322.5 -122.5t-322.5 122.5zM246 1812v224l475 219v-348z" />
<glyph unicode="&#xdb;" d="M162.5 106.5q-105.5 122.5 -105.5 364.5v1288h342v-1274q0 -84 16.5 -131t69.5 -47t69.5 46t16.5 132v1274h342v-1288q0 -242 -105.5 -364.5t-322.5 -122.5t-322.5 122.5zM41 1851l240 404h407l242 -404h-359l-86 285l-86 -285h-358z" />
<glyph unicode="&#xdc;" d="M162.5 106.5q-105.5 122.5 -105.5 364.5v1288h342v-1274q0 -84 16.5 -131t69.5 -47t69.5 46t16.5 132v1274h342v-1288q0 -242 -105.5 -364.5t-322.5 -122.5t-322.5 122.5zM58 1859v297h358v-297h-358zM543 1859v297h356v-297h-356z" />
<glyph unicode="&#xdd;" horiz-adv-x="913" d="M291 0v580l-281 1179h348l99 -596l98 596h348l-280 -1179v-580h-332zM217 1812v224l475 219v-348z" />
<glyph unicode="&#xde;" horiz-adv-x="946" d="M61 1759h347v-243h118q217 0 304.5 -140.5t87.5 -402.5q0 -260 -77 -399.5t-290 -139.5h-143v-434h-347v1759zM428 721q66 0 96.5 30.5t37.5 79t7 136.5q0 90 -7 142t-33.5 85t-82.5 33h-38v-506h20z" />
<glyph unicode="&#xdf;" horiz-adv-x="1007" d="M57 1411q0 365 426 365t426 -365v-117q0 -225 -149 -274q119 -27 164 -139.5t45 -321.5q0 -252 -89 -405.5t-298 -153.5h-105v281q143 0 144 118v332q0 82 -33 115t-115 33v247q49 0 66.5 31t17.5 88v207q0 78 -74 78q-76 0 -75 -78v-1452h-351v1411z" />
<glyph unicode="&#xe0;" horiz-adv-x="989" d="M105.5 99.5q-64.5 115.5 -64.5 330.5q0 176 46 270.5t128 138.5t250 97l98 33v4v149q0 59 -23.5 91t-56.5 32q-29 0 -50 -26.5t-21 -71.5v-90h-349v49q0 221 103.5 315.5t337.5 94.5q186 0 303 -97.5t117 -275.5v-1143h-357v178q-27 -92 -85 -143t-138 -51 q-174 0 -238.5 115.5zM543.5 296q17.5 34 17.5 83v418q-80 -31 -117.5 -78t-37.5 -131v-193q0 -133 79 -133q41 0 58.5 34zM742 1568l-476 95v348l476 -219v-224z" />
<glyph unicode="&#xe1;" horiz-adv-x="989" d="M105.5 99.5q-64.5 115.5 -64.5 330.5q0 176 46 270.5t128 138.5t250 97l98 33v4v149q0 59 -23.5 91t-56.5 32q-29 0 -50 -26.5t-21 -71.5v-90h-349v49q0 221 103.5 315.5t337.5 94.5q186 0 303 -97.5t117 -275.5v-1143h-357v178q-27 -92 -85 -143t-138 -51 q-174 0 -238.5 115.5zM543.5 296q17.5 34 17.5 83v418q-80 -31 -117.5 -78t-37.5 -131v-193q0 -133 79 -133q41 0 58.5 34zM264 1568v224l475 219v-348z" />
<glyph unicode="&#xe2;" horiz-adv-x="989" d="M105.5 99.5q-64.5 115.5 -64.5 330.5q0 176 46 270.5t128 138.5t250 97l98 33v4v149q0 59 -23.5 91t-56.5 32q-29 0 -50 -26.5t-21 -71.5v-90h-349v49q0 221 103.5 315.5t337.5 94.5q186 0 303 -97.5t117 -275.5v-1143h-357v178q-27 -92 -85 -143t-138 -51 q-174 0 -238.5 115.5zM543.5 296q17.5 34 17.5 83v418q-80 -31 -117.5 -78t-37.5 -131v-193q0 -133 79 -133q41 0 58.5 34zM59 1607l240 404h407l242 -404h-359l-86 285l-86 -285h-358z" />
<glyph unicode="&#xe3;" horiz-adv-x="989" d="M105.5 99.5q-64.5 115.5 -64.5 330.5q0 176 46 270.5t128 138.5t250 97l98 33v4v149q0 59 -23.5 91t-56.5 32q-29 0 -50 -26.5t-21 -71.5v-90h-349v49q0 221 103.5 315.5t337.5 94.5q186 0 303 -97.5t117 -275.5v-1143h-357v178q-27 -92 -85 -143t-138 -51 q-174 0 -238.5 115.5zM543.5 296q17.5 34 17.5 83v418q-80 -31 -117.5 -78t-37.5 -131v-193q0 -133 79 -133q41 0 58.5 34zM564 1642q-48 14 -116 41q-33 14 -63.5 24.5t-52.5 10.5q-59 0 -92 -68l-150 78q45 111 97.5 167t150.5 56q53 0 96 -12t113 -39q74 -33 110 -33 q57 0 95 74l165 -53q-31 -86 -58.5 -138.5t-73.5 -87t-115 -34.5q-58 0 -106 14z" />
<glyph unicode="&#xe4;" horiz-adv-x="989" d="M105.5 99.5q-64.5 115.5 -64.5 330.5q0 176 46 270.5t128 138.5t250 97l98 33v4v149q0 59 -23.5 91t-56.5 32q-29 0 -50 -26.5t-21 -71.5v-90h-349v49q0 221 103.5 315.5t337.5 94.5q186 0 303 -97.5t117 -275.5v-1143h-357v178q-27 -92 -85 -143t-138 -51 q-174 0 -238.5 115.5zM543.5 296q17.5 34 17.5 83v418q-80 -31 -117.5 -78t-37.5 -131v-193q0 -133 79 -133q41 0 58.5 34zM76 1615v297h358v-297h-358zM561 1615v297h356v-297h-356z" />
<glyph unicode="&#xe5;" horiz-adv-x="989" d="M105.5 99.5q-64.5 115.5 -64.5 330.5q0 176 46 270.5t128 138.5t250 97l98 33v4v149q0 59 -23.5 91t-56.5 32q-29 0 -50 -26.5t-21 -71.5v-90h-349v49q0 221 103.5 315.5t337.5 94.5q186 0 303 -97.5t117 -275.5v-1143h-357v178q-27 -92 -85 -143t-138 -51 q-174 0 -238.5 115.5zM543.5 296q17.5 34 17.5 83v418q-80 -31 -117.5 -78t-37.5 -131v-193q0 -133 79 -133q41 0 58.5 34zM245.5 1686q-96.5 91 -96.5 249t96.5 248t258.5 90t258 -90t96 -248t-96.5 -249t-257.5 -91q-162 0 -258.5 91zM608 1822q39 45 39 113t-39 112 t-104 44q-63 0 -102.5 -45t-39.5 -111q0 -68 39 -113t103 -45q65 0 104 45z" />
<glyph unicode="&#xe6;" horiz-adv-x="1497" d="M145.5 100.5q-106.5 118.5 -106.5 329.5q0 180 48 275.5t132 142.5t258 104l82 29v2l2 92q0 76 -16.5 120t-61.5 44q-74 0 -73 -82v-100h-349q-2 10 -2 49q0 221 104.5 316.5t338.5 95.5q162 0 246 -121q80 121 266 121q432 0 432 -426v-109q0 -227 -4 -278h-520v-211 q0 -233 86 -234q53 0 68.5 57.5t15.5 153.5q0 102 -2 109h356v-86q0 -258 -90 -385t-320 -127q-102 0 -180 46t-108 119q-35 -76 -113 -120.5t-186 -44.5q-197 0 -303.5 118.5zM1090 932v155q0 162 -80 162q-59 0 -73.5 -45t-14.5 -151v-121h168zM540.5 296q18.5 34 18.5 83 v395q-80 -33 -118 -78t-38 -127v-174q0 -133 80 -133q39 0 57.5 34z" />
<glyph unicode="&#xe7;" horiz-adv-x="1005" d="M588 905v211q0 59 -16.5 91t-63.5 32q-88 0 -88 -125v-727q0 -51 21.5 -87t64.5 -36t64.5 35t19.5 90l-2 252h364v-262q0 -166 -97 -268.5t-261 -122.5q92 -84 142 -183.5t50 -191.5q0 -109 -74.5 -176.5t-224.5 -67.5q-102 0 -198 39v223q63 -23 119 -22q117 0 116 119 q0 106 -96 262q-195 23 -282 146.5t-87 355.5v462q0 195 42 317t141.5 183.5t275.5 61.5q193 0 313.5 -100.5t120.5 -280.5v-230h-364z" />
<glyph unicode="&#xe8;" horiz-adv-x="999" d="M159.5 111q-100.5 127 -100.5 378v603q0 207 119 315.5t332 108.5q432 0 432 -424v-109q0 -164 -4 -266h-520v-291q0 -78 16.5 -122t69.5 -44q41 0 58.5 24.5t20.5 56.5t3 93v146h356v-86q0 -262 -101.5 -386t-348.5 -124q-232 0 -332.5 127zM586 895v192q0 162 -80 162 q-90 0 -90 -162v-192h170zM748 1568l-476 95v348l476 -219v-224z" />
<glyph unicode="&#xe9;" horiz-adv-x="999" d="M159.5 111q-100.5 127 -100.5 378v603q0 207 119 315.5t332 108.5q432 0 432 -424v-109q0 -164 -4 -266h-520v-291q0 -78 16.5 -122t69.5 -44q41 0 58.5 24.5t20.5 56.5t3 93v146h356v-86q0 -262 -101.5 -386t-348.5 -124q-232 0 -332.5 127zM586 895v192q0 162 -80 162 q-90 0 -90 -162v-192h170zM270 1568v224l475 219v-348z" />
<glyph unicode="&#xea;" horiz-adv-x="999" d="M159.5 111q-100.5 127 -100.5 378v603q0 207 119 315.5t332 108.5q432 0 432 -424v-109q0 -164 -4 -266h-520v-291q0 -78 16.5 -122t69.5 -44q41 0 58.5 24.5t20.5 56.5t3 93v146h356v-86q0 -262 -101.5 -386t-348.5 -124q-232 0 -332.5 127zM586 895v192q0 162 -80 162 q-90 0 -90 -162v-192h170zM66 1607l240 404h407l242 -404h-359l-86 285l-86 -285h-358z" />
<glyph unicode="&#xeb;" horiz-adv-x="999" d="M159.5 111q-100.5 127 -100.5 378v603q0 207 119 315.5t332 108.5q432 0 432 -424v-109q0 -164 -4 -266h-520v-291q0 -78 16.5 -122t69.5 -44q41 0 58.5 24.5t20.5 56.5t3 93v146h356v-86q0 -262 -101.5 -386t-348.5 -124q-232 0 -332.5 127zM586 895v192q0 162 -80 162 q-90 0 -90 -162v-192h170zM82 1615v297h358v-297h-358zM567 1615v297h356v-297h-356z" />
<glyph unicode="&#xec;" horiz-adv-x="481" d="M61 0v1499h359v-1499h-359zM480 1552l-476 95v348l476 -219v-224z" />
<glyph unicode="&#xed;" horiz-adv-x="481" d="M61 0v1499h359v-1499h-359zM2 1552v224l475 219v-348z" />
<glyph unicode="&#xee;" horiz-adv-x="481" d="M61 0v1499h359v-1499h-359zM-203 1591l240 404h407l242 -404h-359l-86 285l-86 -285h-358z" />
<glyph unicode="&#xef;" horiz-adv-x="481" d="M61 0v1499h359v-1499h-359zM-186 1599v297h358v-297h-358zM299 1599v297h356v-297h-356z" />
<glyph unicode="&#xf0;" horiz-adv-x="1030" d="M152.5 111q-103.5 127 -103.5 399q0 242 100.5 361.5t315.5 119.5q41 0 92 -11t80 -30q-18 139 -105 264l-192 -124l-104 161l170 111q-76 70 -160 119t-162 65l94 228q129 -12 257 -75t237 -165l239 156l105 -160l-217 -141q90 -125 140 -275.5t50 -314.5v-260 q0 -195 -45 -316t-149.5 -180t-286.5 -59q-252 0 -355.5 127zM623 420v172q0 133 -101 133q-88 0 -88 -156v-88q0 -106 16.5 -154t77.5 -48q95 0 95 141z" />
<glyph unicode="&#xf1;" horiz-adv-x="1021" d="M72 1499h358v-190q23 92 78 149.5t147 57.5q152 0 224.5 -93.5t72.5 -265.5v-1157h-352v1120q0 49 -19.5 84t-60.5 35q-55 0 -72.5 -50t-17.5 -134v-1055h-358v1499zM572 1626q-48 14 -116 41q-33 14 -63.5 24.5t-52.5 10.5q-59 0 -92 -68l-150 78q45 111 97.5 167 t150.5 56q53 0 96 -12t113 -39q74 -33 110 -33q57 0 95 74l165 -53q-31 -86 -58.5 -138.5t-73.5 -87t-115 -34.5q-58 0 -106 14z" />
<glyph unicode="&#xf2;" horiz-adv-x="1017" d="M59 449v602q0 213 120 339t329 126t328.5 -126t119.5 -339v-602q0 -465 -448 -465q-449 0 -449 465zM571.5 291q20.5 31 20.5 84v733q0 131 -84 131t-84 -131v-733q0 -53 20.5 -84t63.5 -31t63.5 31zM746 1568l-476 95v348l476 -219v-224z" />
<glyph unicode="&#xf3;" horiz-adv-x="1017" d="M59 449v602q0 213 120 339t329 126t328.5 -126t119.5 -339v-602q0 -465 -448 -465q-449 0 -449 465zM571.5 291q20.5 31 20.5 84v733q0 131 -84 131t-84 -131v-733q0 -53 20.5 -84t63.5 -31t63.5 31zM268 1568v224l475 219v-348z" />
<glyph unicode="&#xf4;" horiz-adv-x="1017" d="M59 449v602q0 213 120 339t329 126t328.5 -126t119.5 -339v-602q0 -465 -448 -465q-449 0 -449 465zM571.5 291q20.5 31 20.5 84v733q0 131 -84 131t-84 -131v-733q0 -53 20.5 -84t63.5 -31t63.5 31zM64 1607l240 404h407l242 -404h-359l-86 285l-86 -285h-358z" />
<glyph unicode="&#xf5;" horiz-adv-x="1017" d="M59 449v602q0 213 120 339t329 126t328.5 -126t119.5 -339v-602q0 -465 -448 -465q-449 0 -449 465zM571.5 291q20.5 31 20.5 84v733q0 131 -84 131t-84 -131v-733q0 -53 20.5 -84t63.5 -31t63.5 31zM568 1642q-48 14 -116 41q-33 14 -63.5 24.5t-52.5 10.5 q-59 0 -92 -68l-150 78q45 111 97.5 167t150.5 56q53 0 96 -12t113 -39q74 -33 110 -33q57 0 95 74l165 -53q-31 -86 -58.5 -138.5t-73.5 -87t-115 -34.5q-58 0 -106 14z" />
<glyph unicode="&#xf6;" horiz-adv-x="1017" d="M59 449v602q0 213 120 339t329 126t328.5 -126t119.5 -339v-602q0 -465 -448 -465q-449 0 -449 465zM571.5 291q20.5 31 20.5 84v733q0 131 -84 131t-84 -131v-733q0 -53 20.5 -84t63.5 -31t63.5 31zM80 1615v297h358v-297h-358zM565 1615v297h356v-297h-356z" />
<glyph unicode="&#xf7;" horiz-adv-x="684" d="M193 977v297h299v-297h-299zM35 639v231h614v-231h-614zM193 238v297h299v-297h-299z" />
<glyph unicode="&#xf8;" horiz-adv-x="989" d="M850 1374q106 -123 106 -323v-602q0 -465 -448 -465q-121 0 -205 32l-82 -190l-135 51l92 217q-119 113 -119 355v602q0 213 120 339t329 126q131 0 229 -52l101 197l141 -57zM592 1108q0 131 -84 131t-84 -131v-733q0 -53 20.5 -84t63.5 -31t63.5 31t20.5 84v733z" />
<glyph unicode="&#xf9;" horiz-adv-x="1021" d="M130.5 84q-62.5 100 -62.5 299v1116h360v-1044v-77t19.5 -88.5t60.5 -25.5q55 0 69.5 46t14.5 132v13l2 1044h356v-1499h-358v160q-37 -94 -86 -135t-146 -41q-167 0 -229.5 100zM750 1552l-476 95v348l476 -219v-224z" />
<glyph unicode="&#xfa;" horiz-adv-x="1021" d="M130.5 84q-62.5 100 -62.5 299v1116h360v-1044v-77t19.5 -88.5t60.5 -25.5q55 0 69.5 46t14.5 132v13l2 1044h356v-1499h-358v160q-37 -94 -86 -135t-146 -41q-167 0 -229.5 100zM272 1552v224l475 219v-348z" />
<glyph unicode="&#xfb;" horiz-adv-x="1021" d="M130.5 84q-62.5 100 -62.5 299v1116h360v-1044v-77t19.5 -88.5t60.5 -25.5q55 0 69.5 46t14.5 132v13l2 1044h356v-1499h-358v160q-37 -94 -86 -135t-146 -41q-167 0 -229.5 100zM68 1591l240 404h407l242 -404h-359l-86 285l-86 -285h-358z" />
<glyph unicode="&#xfc;" horiz-adv-x="1021" d="M130.5 84q-62.5 100 -62.5 299v1116h360v-1044v-77t19.5 -88.5t60.5 -25.5q55 0 69.5 46t14.5 132v13l2 1044h356v-1499h-358v160q-37 -94 -86 -135t-146 -41q-167 0 -229.5 100zM84 1599v297h358v-297h-358zM569 1599v297h356v-297h-356z" />
<glyph unicode="&#xfd;" horiz-adv-x="944" d="M43 -23h172q37 0 37 31q0 14 -2 23l-234 1468h342l68 -731l33 -373l39 373l80 731h344l-279 -1577q-14 -88 -58 -130t-139 -42h-403v227zM231 1552v224l475 219v-348z" />
<glyph unicode="&#xfe;" horiz-adv-x="1007" d="M61 1769h369v-342q90 92 201 93q174 0 249.5 -104.5t75.5 -301.5v-723q0 -184 -77.5 -296.5t-237.5 -112.5q-145 0 -211 178v-344h-369v1953zM572.5 285.5q15.5 23.5 18.5 59.5t3 112v624q0 80 -14.5 119t-61.5 39q-51 0 -69.5 -39t-18.5 -115v-628q0 -98 16.5 -146.5 t73.5 -48.5q37 0 52.5 23.5z" />
<glyph unicode="&#xff;" horiz-adv-x="944" d="M43 -23h172q37 0 37 31q0 14 -2 23l-234 1468h342l68 -731l33 -373l39 373l80 731h344l-279 -1577q-14 -88 -58 -130t-139 -42h-403v227zM43 1599v297h358v-297h-358zM528 1599v297h356v-297h-356z" />
<glyph unicode="&#x131;" horiz-adv-x="481" d="M61 0v1499h359v-1499h-359z" />
<glyph unicode="&#x152;" horiz-adv-x="1329" d="M49 430v926q0 219 142.5 311t406.5 92h670v-309h-336v-367h321v-299h-321v-473h358v-311h-684q-557 0 -557 430zM573 311v1139h-55q-57 0 -89 -36t-32 -99v-836q0 -74 29 -121t86 -47h61z" />
<glyph unicode="&#x153;" horiz-adv-x="1513" d="M47 449v602q0 213 120 340t329 127q156 0 266 -97q98 96 268 97q432 0 432 -426v-109q0 -176 -4 -278h-520v-211v-68q0 -78 16.5 -122t69.5 -44t68.5 58.5t15.5 152.5q0 102 -2 109h356v-86q0 -262 -102.5 -387t-347.5 -125q-152 0 -246 88q-102 -88 -270 -88 q-449 0 -449 467zM1106 932v155q0 162 -80 162q-59 0 -74.5 -50t-15.5 -142l2 -125h168zM559.5 291q20.5 31 20.5 84v733q0 131 -84 131t-84 -131v-733q0 -53 20.5 -84t63.5 -31t63.5 31z" />
<glyph unicode="&#x178;" horiz-adv-x="913" d="M291 0v580l-281 1179h348l99 -596l98 596h348l-280 -1179v-580h-332zM27 1859v297h358v-297h-358zM512 1859v297h356v-297h-356z" />
<glyph unicode="&#x2c6;" d="M41 1591l240 404h407l242 -404h-359l-86 285l-86 -285h-358z" />
<glyph unicode="&#x2da;" horiz-adv-x="804" d="M149.5 1670q-96.5 91 -96.5 249t96.5 248t258.5 90t258 -90t96 -248t-96.5 -249t-257.5 -91q-162 0 -258.5 91zM512 1806q39 45 39 113t-39 112t-104 44q-63 0 -102.5 -45t-39.5 -111q0 -68 39 -113t103 -45q65 0 104 45z" />
<glyph unicode="&#x2dc;" horiz-adv-x="1015" d="M562 1626q-48 14 -116 41q-33 14 -63.5 24.5t-52.5 10.5q-59 0 -92 -68l-150 78q45 111 97.5 167t150.5 56q53 0 96 -12t113 -39q74 -33 110 -33q57 0 95 74l165 -53q-31 -86 -58.5 -138.5t-73.5 -87t-115 -34.5q-58 0 -106 14z" />
<glyph unicode="&#x2000;" horiz-adv-x="1258" />
<glyph unicode="&#x2001;" horiz-adv-x="2517" />
<glyph unicode="&#x2002;" horiz-adv-x="1258" />
<glyph unicode="&#x2003;" horiz-adv-x="2517" />
<glyph unicode="&#x2004;" horiz-adv-x="839" />
<glyph unicode="&#x2005;" horiz-adv-x="629" />
<glyph unicode="&#x2006;" horiz-adv-x="419" />
<glyph unicode="&#x2007;" horiz-adv-x="419" />
<glyph unicode="&#x2008;" horiz-adv-x="314" />
<glyph unicode="&#x2009;" horiz-adv-x="503" />
<glyph unicode="&#x200a;" horiz-adv-x="139" />
<glyph unicode="&#x2010;" horiz-adv-x="636" d="M59 510v231h516v-231h-516z" />
<glyph unicode="&#x2011;" horiz-adv-x="636" d="M59 510v231h516v-231h-516z" />
<glyph unicode="&#x2012;" horiz-adv-x="636" d="M59 510v231h516v-231h-516z" />
<glyph unicode="&#x2013;" horiz-adv-x="636" d="M59 510v231h516v-231h-516z" />
<glyph unicode="&#x2014;" horiz-adv-x="1153" d="M59 510v231h1033v-231h-1033z" />
<glyph unicode="&#x2018;" horiz-adv-x="481" d="M53 1227v289l103 243h211l-66 -235h127v-297h-375z" />
<glyph unicode="&#x2019;" horiz-adv-x="475" d="M111 1243l65 238h-127v297h375v-289l-102 -246h-211z" />
<glyph unicode="&#x201a;" horiz-adv-x="483" d="M117 -236l65 236h-127v299h373v-291l-100 -244h-211z" />
<glyph unicode="&#x201c;" horiz-adv-x="950" d="M53 1227v289l103 243h211l-66 -235h127v-297h-375zM522 1227v289l103 243h211l-66 -235h127v-297h-375z" />
<glyph unicode="&#x201d;" horiz-adv-x="948" d="M111 1227l65 235h-127v297h375v-289l-102 -243h-211zM584 1227l65 235h-127v297h375v-289l-102 -243h-211z" />
<glyph unicode="&#x201e;" horiz-adv-x="956" d="M117 -236l65 236h-127v299h373v-291l-100 -244h-211zM590 -236l65 236h-127v299h373v-291l-100 -244h-211z" />
<glyph unicode="&#x2022;" horiz-adv-x="720" d="M130 495.5q-83 92.5 -83 245.5q0 154 83 246t230 92t230.5 -92t83.5 -246t-83 -246t-231 -92q-147 0 -230 92.5z" />
<glyph unicode="&#x2026;" horiz-adv-x="1449" d="M55 0v299h359v-299h-359zM547 0v299h356v-299h-356zM1036 0v299h359v-299h-359z" />
<glyph unicode="&#x202f;" horiz-adv-x="503" />
<glyph unicode="&#x2039;" horiz-adv-x="606" d="M549 260l-510 285v413l510 273v-361l-313 -120l313 -132v-358z" />
<glyph unicode="&#x203a;" horiz-adv-x="606" d="M57 260v358l314 132l-314 120v361l510 -273v-413z" />
<glyph unicode="&#x2044;" horiz-adv-x="462" d="M-201 -16l580 1792h285l-680 -1792h-185z" />
<glyph unicode="&#x205f;" horiz-adv-x="629" />
<glyph unicode="&#x2074;" horiz-adv-x="626" d="M334 819v152h-303v149l186 641h324v-618h39v-172h-39v-152h-207zM223 1143h111v444z" />
<glyph unicode="&#x20ac;" horiz-adv-x="1075" d="M262 118q-123 134 -123 365v168h-98v183h98v149h-98v184h98v111q0 244 117 371t350 127q217 0 324.5 -125t111.5 -359h-350v29q0 74 -16.5 111.5t-69.5 37.5q-55 0 -71.5 -38.5t-16.5 -110.5v-154h316v-184h-316v-149h316v-183h-316v-202q0 -47 24.5 -82t63.5 -35 t62.5 34.5t23.5 82.5v22l350 6q-2 -223 -115.5 -358t-320.5 -135q-221 0 -344 134z" />
<glyph unicode="&#x2122;" horiz-adv-x="1894" d="M209 553v975h-160v231h586v-231h-160v-975h-266zM743 553v1206h406l113 -629l112 629h410v-1206h-260v870l-138 -870h-239l-148 870v-870h-256z" />
<glyph unicode="&#x25fc;" horiz-adv-x="1505" d="M0 1505h1505v-1505h-1505v1505z" />
<glyph unicode="&#xfb03;" horiz-adv-x="1644" d="M104 1161h-63l2 273h61v102q0 242 242 242q115 0 184 -29v-221q-20 6 -32 6q-29 0 -37 -20.5t-8 -61.5v-18h77v-277h-69v-1157h-357v1161zM677 1161h-63l2 273h61v102q0 242 242 242q115 0 184 -29v-221q-20 6 -32 6q-29 0 -37 -20.5t-8 -61.5v-18h77v-277h-69v-1157 h-357v1161zM1217 1599v250h358v-250h-358zM1217 0v1499h358v-1499h-358z" />
<glyph unicode="&#xfb04;" horiz-adv-x="1654" d="M104 1161h-63l2 273h61v102q0 242 242 242q115 0 184 -29v-221q-20 6 -32 6q-29 0 -37 -20.5t-8 -61.5v-18h77v-277h-69v-1157h-357v1161zM677 1161h-63l2 273h61v102q0 242 242 242q115 0 184 -29v-221q-20 6 -32 6q-29 0 -37 -20.5t-8 -61.5v-18h77v-277h-69v-1157 h-357v1161zM1219 0v1769h364v-1769h-364z" />
</font>
</defs>
</svg>
