<?xml version="1.0" standalone="no"?>
<!DOCTYPE svg PUBLIC "-//W3C//DTD SVG 1.1//EN" "http://www.w3.org/Graphics/SVG/1.1/DTD/svg11.dtd" >
<svg xmlns="http://www.w3.org/2000/svg" xmlns:xlink="http://www.w3.org/1999/xlink" version="1.1">
<metadata></metadata>
<defs>
<font id="alatsiregular" horiz-adv-x="0" >
<font-face units-per-em="2048" ascent="1638" descent="-410" />
<missing-glyph horiz-adv-x="389" />
<glyph unicode="&#xfb01;" horiz-adv-x="1288" d="M166 805h-137v215h137v188q0 146 54 231.5t132 117.5t160 32q87 0 142 -15t69 -30v-223q-22 27 -66.5 42t-81.5 15q-162 0 -161 -164v-194h248v-215h-248v-805h-248v805zM869 1020h266v-1020h-266v1020zM858 1458h286v-272h-286v272z" />
<glyph unicode="&#xfb02;" horiz-adv-x="1275" d="M166 805h-137v215h137v188q0 146 54 231.5t132 117.5t160 32q87 0 142 -15t69 -30v-223q-22 27 -66.5 42t-81.5 15q-162 0 -161 -164v-194h248v-215h-248v-805h-248v805zM871 1556h250v-1556h-250v1556z" />
<glyph unicode="&#xfb03;" horiz-adv-x="2002" d="M166 805h-137v215h137v188q0 146 54 231.5t132 117.5t160 32q87 0 142 -15t69 -30v-223q-22 27 -66.5 42t-81.5 15q-162 0 -161 -164v-194h248v-215h-248v-805h-248v805zM881 805h-137v215h137v188q0 146 54 231.5t132 117.5t160 32q87 0 142 -15t69 -30v-223 q-22 27 -66.5 42t-81.5 15q-162 0 -161 -164v-194h248v-215h-248v-805h-248v805zM1573 1458h287v-272h-287v272zM1584 1020h266v-1020h-266v1020z" />
<glyph unicode="&#xfb04;" horiz-adv-x="1990" d="M166 805h-137v215h137v188q0 146 54 231.5t132 117.5t160 32q87 0 142 -15t69 -30v-223q-22 27 -66.5 42t-81.5 15q-162 0 -161 -164v-194h248v-215h-248v-805h-248v805zM881 805h-137v215h137v188q0 146 54 231.5t132 117.5t160 32q87 0 142 -15t69 -30v-223 q-22 27 -66.5 42t-81.5 15q-162 0 -161 -164v-194h248v-215h-248v-805h-248v805zM1586 1556h250v-1556h-250v1556z" />
<glyph horiz-adv-x="1228" />
<glyph horiz-adv-x="1228" />
<glyph unicode="&#xd;" />
<glyph unicode=" "  horiz-adv-x="389" />
<glyph unicode="&#x09;" horiz-adv-x="389" />
<glyph unicode="&#xa0;" horiz-adv-x="389" />
<glyph unicode="!" horiz-adv-x="649" d="M184 1575h281l-29 -1057h-225zM207 305h233v-305h-233v305z" />
<glyph unicode="&#x22;" horiz-adv-x="1024" d="M639 735l-23 692h226l-23 -692h-180zM205 735l-23 692h226l-23 -692h-180z" />
<glyph unicode="#" horiz-adv-x="1267" d="M958 895l-43 -377h211v-158h-229l-41 -360h-180l41 360h-236l-41 -360h-180l41 360h-213v158h231l43 377h-221v156h240l43 376h180l-43 -376h236l43 376h180l-43 -376h203v-156h-222zM778 895h-235l-43 -377h235z" />
<glyph unicode="$" horiz-adv-x="1087" d="M924.5 249.5q-83.5 -89.5 -230.5 -117.5v-163h-243v158q-207 25 -326 123l74 166q29 -27 81 -56t119.5 -49t137.5 -20q85 0 143.5 38.5t58.5 121.5q0 46 -34 77.5t-83.5 51.5t-127.5 43q-106 31 -184.5 73.5t-127.5 116t-49 182.5q0 82 37.5 150t108.5 115.5t172 64.5 v199h243v-200q87 -16 152 -50t92 -68l-82 -157q-12 16 -53 42t-97 46t-112 20q-87 0 -146 -38t-59 -109q0 -77 66.5 -117.5t167.5 -63.5q171 -40 278 -131t107 -227q0 -132 -83.5 -221.5z" />
<glyph unicode="%" horiz-adv-x="1851" d="M176 764.5q-86 102.5 -86 284.5q0 200 90 295.5t254 95.5q162 0 250 -96t88 -297q0 -385 -338 -385q-172 0 -258 102.5zM1214 1427h201l-782 -1427h-201zM524.5 874q22.5 59 22.5 168q0 85 -10.5 137.5t-36.5 78.5t-72 26q-66 0 -92.5 -57t-26.5 -178q0 -112 25.5 -173 t97.5 -61q70 0 92.5 59zM1164.5 72.5q-85.5 103.5 -85.5 285.5q0 199 89 295.5t253 96.5q162 0 251 -97t89 -299q0 -180 -80 -282.5t-258 -102.5q-173 0 -258.5 103.5zM1493 156q26 29 33.5 76.5t7.5 119.5q0 127 -25 184.5t-92 57.5q-68 0 -93.5 -56.5t-25.5 -181.5 q0 -111 24.5 -170t94.5 -59q50 0 76 29z" />
<glyph unicode="&#x26;" horiz-adv-x="1259" d="M1188 106l-176 -149l-121 135q-76 -56 -157.5 -84t-188.5 -28q-148 0 -248.5 51t-149.5 132t-49 169q0 89 30 155t83 115.5t137 102.5q-85 93 -133.5 180.5t-48.5 195.5q0 118 57 205t148 132.5t192 45.5q104 0 189.5 -37.5t135.5 -114t50 -188.5q0 -118 -70.5 -234.5 t-197.5 -201.5q160 -186 248 -282q38 54 67 126.5t43 143.5l201 -121q-16 -79 -53.5 -145t-110.5 -166zM470.5 1259.5q-36.5 -26.5 -56 -69.5t-19.5 -92q0 -118 154 -285q74 63 112.5 140t38.5 161q0 77 -36 124.5t-109 47.5q-48 0 -84.5 -26.5zM752 250l-289 330 q-63 -50 -90 -99t-27 -112q0 -40 17.5 -83t60 -74.5t113.5 -31.5q117 0 215 70z" />
<glyph unicode="'" horiz-adv-x="589" d="M205 735l-23 692h226l-23 -692h-180z" />
<glyph unicode="(" horiz-adv-x="790" d="M433.5 -151q-124.5 123 -214.5 336t-90 491q0 279 90.5 496t216 342t223.5 143l91 -90q-63 -26 -147.5 -124t-150 -291t-65.5 -476q0 -399 117.5 -599t245.5 -290l-91 -90q-101 29 -225.5 152z" />
<glyph unicode=")" horiz-adv-x="790" d="M96 -221q128 90 245.5 289.5t117.5 599.5q0 284 -65.5 476t-149.5 290.5t-148 124.5l90 90q98 -17 224 -143t216.5 -343t90.5 -495t-90 -491t-214.5 -336.5t-226.5 -151.5z" />
<glyph unicode="*" horiz-adv-x="1013" d="M641 1121l211 -249l-168 -118l-178 279l-176 -279l-170 120l210 250l-296 88l59 189l288 -121l-20 309h207l-16 -309l285 117l65 -189z" />
<glyph unicode="+" horiz-adv-x="1171" d="M1087 504h-397v-414h-221v414h-383v201h383v409h221v-409h397v-201z" />
<glyph unicode="," horiz-adv-x="456" d="M96 -165q10 129 10 261v209h232v-160q0 -92 -13.5 -190t-34.5 -176t-44 -113h-176q16 40 26 169z" />
<glyph unicode="-" horiz-adv-x="931" d="M139 705h654v-201h-654v201z" />
<glyph unicode="." horiz-adv-x="436" d="M98 305h240v-305h-240v305z" />
<glyph unicode="/" horiz-adv-x="737" d="M-37 -367l610 2167h201l-610 -2169z" />
<glyph unicode="0" horiz-adv-x="1187" d="M200.5 162.5q-126.5 199.5 -126.5 548.5q0 377 134 564t386 187t386 -187.5t134 -563.5q0 -348 -126.5 -548t-393.5 -200t-393.5 199.5zM827 713q0 535 -231 534q-236 0 -236 -534q0 -244 55.5 -387.5t180.5 -143.5q231 1 231 531z" />
<glyph unicode="1" horiz-adv-x="641" d="M182 1335l277 129v-1464h-277v1335z" />
<glyph unicode="2" horiz-adv-x="1148" d="M1049 233v-233h-920q-14 76 -14 143q0 127 41 219.5t120 164t209 147.5q90 53 148 96t99.5 108.5t41.5 151.5q0 55 -22.5 102t-69.5 75t-117 28q-111 0 -180 -71.5t-88 -192.5l-217 102q16 108 83.5 196.5t176.5 140.5t244 52q128 0 232 -48t164 -140.5t60 -218.5 q0 -129 -46.5 -226.5t-136 -176t-236.5 -167.5q-82 -49 -124.5 -79.5t-73 -72t-40.5 -100.5h666z" />
<glyph unicode="3" horiz-adv-x="1116" d="M277.5 -1q-107.5 30 -191.5 89l86 234q57 -55 140.5 -87t166.5 -32q133 0 201 63t68 166q0 115 -78.5 159t-208.5 44h-109v203h111q122 0 185 59t63 158q0 97 -57.5 135.5t-174.5 38.5q-42 0 -98.5 -15t-111 -43t-89.5 -67l-102 217q70 61 188 101t269 40 q141 0 245.5 -43t160.5 -125.5t56 -197.5q0 -79 -28 -155t-82 -130.5t-127 -73.5q84 0 147 -47t96 -124t33 -165q0 -131 -70.5 -229t-191.5 -150.5t-268 -52.5q-121 0 -228.5 30z" />
<glyph unicode="4" horiz-adv-x="1251" d="M1198 258h-172v-258h-268v258h-676l-14 23l526 1146h432v-970h172v-199zM432 457h338l9 824l-230 -570z" />
<glyph unicode="5" horiz-adv-x="1118" d="M265 -4.5q-102 22.5 -173 70.5l76 229q45 -42 121 -70t147 -28q84 0 153.5 17.5t119 76.5t49.5 172q0 81 -36.5 141t-106.5 92.5t-169 32.5q-80 0 -166.5 -21.5t-123.5 -43.5l26 763h791v-217h-557l-21 -305q46 13 93 19t104 6q142 0 241.5 -54t150 -152.5t50.5 -234.5 q0 -158 -70.5 -274.5t-198 -179t-294.5 -62.5q-104 0 -206 22.5z" />
<glyph unicode="6" horiz-adv-x="1275" d="M395 40.5q-123 71.5 -199.5 232t-76.5 415.5q0 234 80 410t221 270t321 94q136 0 216.5 -26.5t134.5 -77.5l-101 -197q-38 41 -103.5 59.5t-131.5 18.5q-101 0 -181 -62t-126.5 -160.5t-53.5 -207.5q-2 -29 -2 -76q53 101 151.5 152t217.5 51q134 0 231 -60t147 -162.5 t50 -228.5q0 -156 -65.5 -272.5t-185 -180t-275.5 -63.5q-146 0 -269 71.5zM797.5 214q54.5 34 86 98t31.5 149q0 124 -53.5 195t-161.5 71q-67 0 -129 -33.5t-102.5 -89.5t-44.5 -121q0 -82 30.5 -151t88.5 -110.5t135 -41.5q65 0 119.5 34z" />
<glyph unicode="7" horiz-adv-x="1079" d="M1028 1427l-461 -1427h-293l411 1186h-593v241h936z" />
<glyph unicode="8" horiz-adv-x="1267" d="M1097.5 612q73.5 -90 73.5 -221q0 -146 -77 -242.5t-199.5 -141t-259.5 -44.5q-138 0 -260.5 44.5t-200.5 141t-78 242.5q0 130 73 219.5t201 134.5q-102 46 -157 133t-55 214q0 128 67.5 211t176 121t235.5 38q126 0 233 -38t173.5 -121t66.5 -211q0 -124 -57 -211 t-157 -136q128 -43 201.5 -133zM432 1073q0 -110 55.5 -171.5t151.5 -61.5q95 0 147 61.5t52 171.5q0 101 -48.5 151t-150.5 50q-207 0 -207 -201zM813.5 226.5q60.5 56.5 60.5 168.5q0 127 -69.5 185.5t-169.5 58.5q-102 0 -173 -58.5t-71 -185.5q0 -113 62 -169t182 -56 q118 0 178.5 56.5z" />
<glyph unicode="9" horiz-adv-x="1275" d="M350.5 -4q-80.5 27 -133.5 78l100 205q38 -41 103.5 -59.5t132.5 -18.5q104 0 185.5 53.5t128.5 149.5t53 219q2 29 2 75q-52 -101 -153.5 -151.5t-221.5 -50.5q-134 0 -231 62t-147 166t-50 230q0 155 68 270t189.5 176.5t278.5 61.5q134 0 255.5 -71.5t200.5 -233 t79 -414.5q0 -234 -80 -409.5t-221 -270t-322 -94.5q-136 0 -216.5 27zM742 738q61 33 100 89t43 121q0 82 -28 151t-81 110.5t-127 41.5q-67 0 -125 -32t-94.5 -94t-36.5 -146q0 -124 57 -199t164 -75q67 0 128 33z" />
<glyph unicode=":" horiz-adv-x="438" d="M98 305h240v-305h-240v305zM98 1069h240v-305h-240v305z" />
<glyph unicode=";" horiz-adv-x="438" d="M98 1069h240v-305h-240v305zM96 -165q10 129 10 261v209h232v-160q0 -92 -13.5 -190t-34.5 -176t-44 -113h-176q16 40 26 169z" />
<glyph unicode="&#x3c;" horiz-adv-x="1089" d="M926 936l-542 -331l542 -331v-229l-762 467v186l762 465v-227z" />
<glyph unicode="=" horiz-adv-x="1171" d="M121 975h868v-201h-868v201zM121 434h868v-201h-868v201z" />
<glyph unicode="&#x3e;" horiz-adv-x="1089" d="M926 698v-186l-762 -467v229l542 331l-542 331v227z" />
<glyph unicode="?" horiz-adv-x="868" d="M238 635q0 89 24.5 149t60 96t93.5 78q49 36 77.5 63.5t48 67.5t19.5 97q0 85 -51 131.5t-135 46.5q-88 0 -153.5 -46.5t-96.5 -107.5l-145 199q60 75 165.5 128.5t235.5 53.5q223 0 334.5 -97.5t111.5 -281.5q0 -74 -22.5 -126.5t-56 -87.5t-91.5 -83 q-62 -50 -100.5 -91t-65 -105.5t-26.5 -155.5v-61h-213q-14 75 -14 133zM250 305h231v-305h-231v305z" />
<glyph unicode="@" horiz-adv-x="1519" d="M1073 494q-37 -159 -37 -222q0 -86 58 -86q70 0 118 61t72.5 165.5t24.5 234.5q0 233 -118.5 358t-350.5 125q-196 0 -338.5 -96t-216.5 -261t-74 -370q0 -278 145 -421.5t414 -143.5q92 0 205.5 28t161.5 64l53 -125q-72 -45 -195.5 -70.5t-226.5 -25.5q-202 0 -360 68 t-252.5 221t-94.5 395q0 259 99 456.5t275.5 305t406.5 107.5q186 0 325 -68.5t215 -206.5t76 -342q0 -194 -56 -327.5t-150 -199t-208 -65.5q-74 0 -111.5 30t-58.5 81q-4 14 -8 39q-56 -59 -127.5 -104.5t-130.5 -45.5q-69 0 -118.5 45.5t-75 122t-25.5 166.5 q0 129 48 249t136.5 195.5t202.5 75.5q60 0 109 -21.5t84 -56.5l18 58h174zM915.5 575q18.5 73 18.5 115q-13 30 -51 52t-86 22q-62 0 -110 -53t-73.5 -135.5t-25.5 -167.5q0 -88 24 -141.5t76 -53.5q51 0 103.5 70.5t82.5 154.5q23 64 41.5 137z" />
<glyph unicode="A" horiz-adv-x="1161" d="M838 207h-510l-76 -207h-287l604 1452h21l606 -1452h-278zM762 406l-150 389l-34 114l-33 -114l-144 -389h361z" />
<glyph unicode="B" horiz-adv-x="1163" d="M1046.5 638.5q59.5 -88.5 59.5 -226.5q0 -197 -133.5 -304.5t-413.5 -107.5h-387v1427h381q481 0 481 -380q0 -89 -42 -170t-125 -121q120 -29 179.5 -117.5zM716.5 1183q-63.5 42 -163.5 42h-123v-396h166q66 0 106.5 32t59 79.5t18.5 97.5q0 103 -63.5 145zM767 253.5 q69 46.5 69 172.5t-71.5 169.5t-189.5 43.5h-145v-432h158q110 0 179 46.5z" />
<glyph unicode="C" horiz-adv-x="1079" d="M369 58.5q-132 83.5 -212.5 254.5t-80.5 420q0 226 80 388.5t216.5 246.5t305.5 84q103 0 175 -20t113 -46t78 -61l-114 -215q-36 39 -63.5 60t-70 34t-108.5 13q-102 0 -176 -60t-113 -166t-39 -243q0 -172 40.5 -294t110 -183.5t155.5 -61.5q91 0 161 25.5t107 64.5 l113 -203q-62 -51 -151 -86t-241 -35q-154 0 -286 83.5z" />
<glyph unicode="D" horiz-adv-x="1243" d="M1015 1251.5q167 -175.5 167 -520.5q0 -224 -75.5 -388.5t-221.5 -253.5t-353 -89h-366v1427h369q313 0 480 -175.5zM755 295q87 70 123.5 182t36.5 248q0 217 -91.5 357.5t-297.5 140.5h-96v-998h96q142 0 229 70z" />
<glyph unicode="E" horiz-adv-x="1036" d="M952 231v-231h-786v1427h745v-223h-489v-334h389v-217h-389v-422h530z" />
<glyph unicode="F" horiz-adv-x="950" d="M434 1202v-375h422v-229h-422v-598h-262v1427h746v-225h-484z" />
<glyph unicode="G" horiz-adv-x="1288" d="M1221 567q0 -272 -119 -438t-428 -166q-172 0 -308 91t-213 263.5t-77 409.5q0 210 81 375t224.5 257.5t327.5 92.5q125 0 207 -19.5t127.5 -46t80.5 -61.5l-112 -227q-85 113 -299 112q-102 0 -185.5 -60t-130.5 -169t-47 -248q0 -168 40.5 -290t115 -186t172.5 -64 q155 0 223 72.5t68 219.5q0 16 -2 56h-293v225h534q13 -127 13 -199z" />
<glyph unicode="H" horiz-adv-x="1345" d="M1174 1427v-1427h-267v606h-471v-606h-264v1427h264v-596h471v596h267z" />
<glyph unicode="I" horiz-adv-x="593" d="M166 1427h262v-1427h-262v1427z" />
<glyph unicode="J" horiz-adv-x="819" d="M104 -11q-82 20 -118 46l98 244q26 -38 66 -60t81 -22q51 0 87 12.5t60.5 58t24.5 135.5v1024h267v-999q0 -210 -99.5 -334.5t-326.5 -124.5q-58 0 -140 20z" />
<glyph unicode="K" horiz-adv-x="1220" d="M893 0l-461 685v-685h-260v1427h260v-710l455 710h301l-487 -708l520 -719h-328z" />
<glyph unicode="L" horiz-adv-x="911" d="M858 225v-225h-686v1427h260v-1202h426z" />
<glyph unicode="M" horiz-adv-x="1538" d="M1366 1452v-1452h-254v612l9 242l-72 -111l-281 -329l-281 329l-72 111l11 -242v-612h-254v1452h21l577 -681l573 681h23z" />
<glyph unicode="N" horiz-adv-x="1353" d="M1182 1427v-1456h-21l-684 781l-63 82l10 -199v-635h-252v1452h23l673 -786l72 -94l-10 196v659h252z" />
<glyph unicode="O" horiz-adv-x="1347" d="M351 66q-134 91 -202.5 257t-68.5 392q0 223 68 389.5t200.5 257t321.5 90.5q196 0 330 -91.5t201 -257.5t67 -388q0 -225 -69.5 -391.5t-202.5 -257.5t-320 -91q-191 0 -325 91zM839 253q72 58 114 177t42 291q0 253 -85.5 385.5t-239.5 132.5q-151 0 -233.5 -132.5 t-82.5 -387.5q0 -174 39.5 -291.5t112 -175t170.5 -57.5q91 0 163 58z" />
<glyph unicode="P" horiz-adv-x="1120" d="M938 1313q141 -114 141 -385q0 -147 -55 -270.5t-171.5 -199t-289.5 -75.5h-127v-383h-264v1427h383q242 0 383 -114zM747 678.5q68 80.5 68 234.5q0 108 -26.5 175t-87.5 100t-162 33h-103v-623h109q134 0 202 80.5z" />
<glyph unicode="Q" horiz-adv-x="1347" d="M1181.5 283.5q-86.5 -178.5 -249.5 -254.5l155 -256l-235 -127l-156 329h-20q-190 0 -324.5 91t-203 257t-68.5 392q0 223 68 389.5t200.5 257t321.5 90.5q196 0 330 -91.5t201 -257.5t67 -388q0 -253 -86.5 -431.5zM393.5 427.5q39.5 -117.5 112 -175t170.5 -57.5 q91 0 163 58t114 177t42 291q0 253 -85.5 385.5t-239.5 132.5q-151 0 -233.5 -132.5t-82.5 -387.5q0 -174 39.5 -291.5z" />
<glyph unicode="R" horiz-adv-x="1181" d="M799 0l-367 516v-516h-260v1427h397q508 0 508 -454q0 -101 -32.5 -199t-107 -174t-189.5 -104l368 -496h-317zM541 645q87 0 149 41.5t93.5 110.5t31.5 151q0 141 -65 208t-215 67h-103v-578h109z" />
<glyph unicode="S" horiz-adv-x="1032" d="M340.5 0q-84.5 23 -148 58.5t-100.5 74.5l105 215q24 -31 71.5 -65.5t109.5 -59t124 -24.5q81 0 135.5 44.5t54.5 125.5q0 52 -25 90.5t-66.5 68.5t-127.5 82q-118 72 -184.5 122.5t-115 133t-48.5 199.5q0 114 48.5 201.5t144 136.5t229.5 49q218 0 364 -133l-114 -209 q-17 25 -52 54t-84.5 50t-103.5 21q-79 0 -122.5 -45.5t-43.5 -114.5q0 -52 26 -92.5t68.5 -72t114.5 -74.5q130 -77 198.5 -129.5t115.5 -132.5t47 -197q0 -124 -53.5 -214t-153 -138t-234.5 -48q-95 0 -179.5 23z" />
<glyph unicode="T" horiz-adv-x="997" d="M961 1196h-330v-1196h-264v1196h-330v231h924v-231z" />
<glyph unicode="U" horiz-adv-x="1271" d="M273 97.5q-138 124.5 -138 412.5v917h266v-946q0 -162 71.5 -223t166.5 -61q96 0 163.5 60t67.5 224v946h267v-917q0 -288 -134.5 -412.5t-359.5 -124.5q-232 0 -370 124.5z" />
<glyph unicode="V" horiz-adv-x="1124" d="M1145 1427l-565 -1434h-33l-567 1434h284l225 -628l79 -239l79 239l217 628h281z" />
<glyph unicode="W" horiz-adv-x="1640" d="M1661 1427l-473 -1430h-33l-335 819l-328 -817h-35l-477 1428h282l249 -828l298 828h35l302 -825l234 825h281z" />
<glyph unicode="X" horiz-adv-x="1161" d="M825 0l-255 552l-244 -552h-306l376 735l-369 692h307l252 -544l243 544h301l-372 -717l383 -710h-316z" />
<glyph unicode="Y" horiz-adv-x="1101" d="M682 558v-558h-262v577l-451 850h289l300 -620l288 620h287z" />
<glyph unicode="Z" horiz-adv-x="1073" d="M455 221h534v-221h-928l569 1206h-501v221h887z" />
<glyph unicode="[" horiz-adv-x="790" d="M440 1499v-1653h260v-149h-485v1952h485v-150h-260z" />
<glyph unicode="\" horiz-adv-x="737" d="M-37 1800h201l610 -2167l-201 -2z" />
<glyph unicode="]" horiz-adv-x="790" d="M575 1649v-1952h-485v149h260v1653h-260v150h485z" />
<glyph unicode="^" horiz-adv-x="962" d="M707 295l-226 756l-227 -756h-229l374 1132h164l375 -1132h-231z" />
<glyph unicode="_" horiz-adv-x="1228" d="M-25 -236h1278v-159h-1278v159z" />
<glyph unicode="`" horiz-adv-x="561" d="M41 1599h279l200 -413h-223z" />
<glyph unicode="a" horiz-adv-x="1017" d="M202.5 12q-62.5 41 -93.5 111t-31 156q0 75 49.5 149t176.5 126t343 52v47q0 84 -40.5 130t-141.5 46q-80 0 -156.5 -27t-111.5 -67l-82 197q70 47 173 79.5t220 32.5q146 0 231.5 -45t120.5 -126.5t35 -202.5v-670h-219l-19 145q-54 -88 -128 -131t-173 -43 q-91 0 -153.5 41zM564 206q52 38 83 95v145q-14 2 -49 3q-103 0 -184.5 -34.5t-81.5 -111.5q0 -73 32 -104t101 -31q47 0 99 38z" />
<glyph unicode="b" horiz-adv-x="1155" d="M532 2.5q-57 31.5 -94 84t-53 116.5v-203h-225v1556h246v-536l-21 -176q15 66 63 111.5t110.5 68.5t123.5 23q190 0 287.5 -135t97.5 -398q0 -177 -54 -299.5t-146 -183t-208 -60.5q-70 0 -127 31.5zM698 209q45 35 73 111t28 194q0 110 -26.5 182.5t-70.5 107t-98 34.5 q-61 0 -105 -44t-66.5 -121.5t-22.5 -174.5q0 -96 23 -169.5t66 -114t101 -40.5q53 0 98 35z" />
<glyph unicode="c" horiz-adv-x="923" d="M291.5 46.5q-104.5 71.5 -154 191t-49.5 268.5q0 145 55.5 268t164 196.5t259.5 73.5q94 0 164.5 -19.5t134.5 -72.5l-84 -217q-30 44 -87.5 70t-112.5 26q-223 0 -224 -323q0 -169 55 -246.5t169 -77.5q69 0 125.5 26t89.5 62l77 -182q-23 -25 -68 -51t-110.5 -45 t-142.5 -19q-157 0 -261.5 71.5z" />
<glyph unicode="d" horiz-adv-x="1150" d="M279 37.5q-92 66.5 -141.5 188t-49.5 282.5q0 256 104 396t306 140q105 0 176.5 -52t93.5 -148l-18 149v563h241v-1556h-223v209q-29 -110 -99.5 -174t-174.5 -64q-123 0 -215 66.5zM647.5 209q43.5 35 69.5 109t26 186q0 162 -46 248t-138 86q-53 0 -99.5 -32 t-77 -105.5t-30.5 -192.5q0 -110 26 -184.5t72 -112t103 -37.5q51 0 94.5 35z" />
<glyph unicode="e" horiz-adv-x="1062" d="M292.5 43.5q-107.5 70.5 -157 188t-49.5 266.5q0 152 56 276t163.5 197t255.5 73q221 0 316.5 -127t95.5 -380q0 -49 -4 -111h-615q6 -124 69 -191t185 -67q63 0 136 28t108 68l82 -194q-144 -96 -369 -97q-165 0 -272.5 70.5zM713 586q0 151 -37.5 207.5t-108.5 56.5 q-99 0 -154 -74t-61 -190h361z" />
<glyph unicode="f" horiz-adv-x="714" d="M166 805h-137v215h137v188q0 146 54 231.5t132 117.5t160 32q87 0 142 -15t69 -30v-223q-22 27 -66.5 42t-81.5 15q-162 0 -161 -164v-194h248v-215h-248v-805h-248v805z" />
<glyph unicode="g" horiz-adv-x="1142" d="M506 -236q132 0 197 69t65 216v160q-26 -94 -89.5 -157.5t-176.5 -63.5q-121 0 -213.5 54t-146.5 171t-54 295q0 181 53.5 301.5t145.5 177.5t209 57q80 0 137.5 -28.5t91 -74t43.5 -97.5l29 176h200v-971q0 -158 -53 -272t-157.5 -175t-256.5 -61q-112 0 -202 27.5 t-150 62.5l115 193q95 -60 213 -60zM693 272.5q50 84.5 50 239.5q0 152 -45.5 239t-136.5 87q-56 0 -103 -33t-76.5 -106t-29.5 -189q0 -160 55 -241t146 -81q90 0 140 84.5z" />
<glyph unicode="h" horiz-adv-x="1171" d="M934.5 947.5q77.5 -96.5 77.5 -273.5v-674h-262v647q0 86 -41 138.5t-113 52.5q-48 0 -90.5 -25t-68 -68.5t-25.5 -97.5v-647h-252v1561h241v-517l-5 -153q105 154 311 153q150 0 227.5 -96.5z" />
<glyph unicode="i" horiz-adv-x="573" d="M143 1458h287v-272h-287v272zM154 1020h266v-1020h-266v1020z" />
<glyph unicode="j" horiz-adv-x="565" d="M141 1458h287v-272h-287v272zM10 -356q42 1 75.5 32t52 85t18.5 120v1139h254v-1149q-4 -191 -83.5 -282.5t-228.5 -100.5z" />
<glyph unicode="k" horiz-adv-x="1038" d="M160 1556h241v-763l-8 -240l314 467h290l-356 -469l391 -551h-309l-330 494l8 -250v-244h-241v1556z" />
<glyph unicode="l" horiz-adv-x="561" d="M156 1556h250v-1556h-250v1556z" />
<glyph unicode="m" horiz-adv-x="1734" d="M1514 947.5q77 -96.5 77 -273.5v-674h-260v647q0 89 -34 140t-105 51q-48 0 -91.5 -25t-70 -68.5t-26.5 -97.5v-647h-263v647q0 87 -38 141t-109 54q-49 0 -90 -25t-65.5 -70t-24.5 -100v-647h-262v1020h235l6 -135q103 160 301 159q102 0 171.5 -45t104.5 -131 q104 176 316 176q151 0 228 -96.5z" />
<glyph unicode="n" horiz-adv-x="1144" d="M924 947.5q77 -96.5 77 -273.5v-674h-262v651q0 87 -36.5 139t-108.5 52q-48 0 -89.5 -24.5t-66 -68t-24.5 -98.5v-651h-262v1020h237l5 -134q105 159 300 158q153 0 230 -96.5z" />
<glyph unicode="o" horiz-adv-x="1114" d="M302.5 43q-105.5 63 -161 182.5t-55.5 286.5t57 287t165 182.5t257 62.5q148 0 252.5 -65t157.5 -184.5t53 -282.5q0 -162 -55 -282t-161 -185t-255 -65t-254.5 63zM706 267q50 83 50 245q0 163 -50 246.5t-145 83.5q-100 0 -151.5 -79t-51.5 -251t51.5 -250t151.5 -78 q95 0 145 83z" />
<glyph unicode="p" horiz-adv-x="1150" d="M156 1020h243v-33l-20 -143q12 57 55.5 103t107 73t132.5 27q197 0 293 -138t96 -385q0 -175 -51 -299.5t-143.5 -189t-215.5 -64.5q-106 0 -176.5 66t-97.5 166l24 -193v-456h-247v1466zM691.5 209q45.5 35 74.5 111t29 194q0 110 -27 182.5t-71.5 107t-98.5 34.5 q-61 0 -105 -44t-67 -121.5t-23 -174.5q0 -96 23.5 -169.5t66.5 -114t101 -40.5q52 0 97.5 35z" />
<glyph unicode="q" horiz-adv-x="1159" d="M748 10l20 199q-28 -116 -104.5 -177t-176.5 -61q-115 0 -205.5 64t-142 185.5t-51.5 287.5q0 183 53 303t145.5 176.5t215.5 56.5q109 0 178 -55.5t88 -144.5v176h231l-4 -1466h-247v456zM647.5 209q43.5 35 69.5 109t26 186q0 162 -46 248t-138 86q-53 0 -98.5 -32 t-75 -105.5t-29.5 -192.5q0 -110 25.5 -184.5t70 -112t101.5 -37.5q51 0 94.5 35z" />
<glyph unicode="r" horiz-adv-x="782" d="M141 1020h232l12 -180q33 79 103.5 135.5t199.5 56.5q51 0 94 -16l-57 -268q-17 17 -41.5 24.5t-58.5 7.5q-72 0 -123.5 -30t-78 -70t-26.5 -66v-614h-256v1020z" />
<glyph unicode="s" horiz-adv-x="894" d="M200.5 18q-83.5 36 -118.5 78l76 195q131 -109 278 -109q67 0 99 27.5t32 66.5q0 43 -55.5 79.5t-165.5 84.5q-71 31 -123 65t-90.5 91.5t-38.5 140.5q0 92 45.5 161t132.5 105.5t209 36.5q73 0 137 -15.5t109 -38.5t66 -44l-70 -184q-47 36 -108 61t-126 25 q-77 0 -108 -20t-31 -66t45.5 -77t141.5 -69q137 -54 210.5 -128t73.5 -181q0 -89 -40.5 -161t-128 -116t-222.5 -44q-146 0 -229.5 36z" />
<glyph unicode="t" horiz-adv-x="796" d="M309.5 8q-64.5 39 -90.5 117.5t-26 206.5v473h-134v215h144l14 215l223 96v-311h252v-215h-252v-467q0 -86 23.5 -122t71.5 -36q42 0 91.5 22t82.5 50l49 -207q-45 -32 -129.5 -54t-141.5 -22q-113 0 -177.5 39z" />
<glyph unicode="u" horiz-adv-x="1112" d="M961 1020v-1020h-232l-5 132q-45 -71 -111 -114t-169 -43q-152 0 -226.5 96.5t-74.5 274.5v674h256v-651q0 -89 32.5 -140t103.5 -51q48 0 86 24t61 67.5t23 99.5v651h256z" />
<glyph unicode="v" horiz-adv-x="964" d="M-12 1020h286l177 -510l45 -168l41 168l170 510h270l-393 -1020h-183z" />
<glyph unicode="w" horiz-adv-x="1464" d="M12 1020h260l123 -485l54 -216l45 216l133 485h213l141 -485l53 -216l47 216l119 485h252l-322 -1020h-206l-164 555l-33 166l-33 -166l-151 -555h-205z" />
<glyph unicode="x" horiz-adv-x="972" d="M236 377l75 125l-78 131l-208 387h290l123 -258l51 -119l54 119l121 258h272l-205 -379l-74 -129l74 -123l221 -389h-288l-148 274l-45 93l-37 -93l-127 -274h-282z" />
<glyph unicode="y" horiz-adv-x="968" d="M371 70l-383 950h284l152 -455l65 -235l66 235l154 455h268l-520 -1407h-252z" />
<glyph unicode="z" horiz-adv-x="909" d="M422 186h420v-186h-815l461 825h-375v195h770z" />
<glyph unicode="{" horiz-adv-x="802" d="M633 -301q-119 0 -209 47t-139 132t-49 194v358q0 76 -32 113t-71 46t-84 9v154q46 0 84.5 8t70.5 43t32 106v371q0 111 48.5 196t139 132t211.5 47q41 0 84 -6l2 -131q-36 8 -72 8q-84 0 -123.5 -47t-49 -122.5t-9.5 -207.5v-158q0 -150 -54.5 -225t-127.5 -94 q41 -11 82.5 -44t70.5 -94.5t29 -148.5v-182q0 -129 10 -205t49.5 -123t122.5 -47q36 0 74 8l-2 -131q-46 -6 -88 -6z" />
<glyph unicode="|" horiz-adv-x="847" d="M319 1700h209v-2040h-209v2040z" />
<glyph unicode="}" horiz-adv-x="790" d="M68 -166q38 -8 73 -8q83 0 122.5 47t50 123t10.5 205v182q0 87 29 148.5t70.5 94t82.5 44.5q-74 19 -128 94.5t-54 224.5v158q0 132 -10 207.5t-49.5 122.5t-123.5 47q-36 0 -71 -8l2 131q43 6 84 6q121 0 211.5 -47t139 -132t48.5 -196v-371q0 -72 31.5 -106.5t70 -42.5 t84.5 -8v-154q-45 0 -84 -9t-70.5 -46t-31.5 -113v-358q0 -109 -49 -194t-139.5 -132t-208.5 -47q-42 0 -88 6z" />
<glyph unicode="~" horiz-adv-x="1179" d="M49 571q11 68 63 133t126 105.5t151 40.5q50 0 92 -14t73 -33t71 -49q55 -43 95.5 -64.5t90.5 -21.5q61 0 101.5 46t68.5 120l147 -99q-10 -68 -61 -132.5t-126 -105t-153 -40.5q-73 0 -128.5 26t-108.5 72q-47 40 -89.5 62t-92.5 22q-112 0 -172 -168z" />
<glyph unicode="&#xa1;" horiz-adv-x="649" d="M209 1247h233v-305h-233v305zM213 729h225l27 -1057h-281z" />
<glyph unicode="&#xa2;" horiz-adv-x="1079" d="M856 265.5q-57 -25.5 -143 -36.5v-229h-244v238q-169 38 -256.5 160.5t-87.5 301.5q0 181 90 302.5t254 159.5v263h244v-253q81 -9 141 -30.5t88 -51.5l-82 -193q-103 94 -217 94q-71 0 -120.5 -38t-75 -103.5t-25.5 -147.5q0 -133 59 -209.5t170 -76.5q117 0 215 88 l80 -182q-33 -31 -90 -56.5z" />
<glyph unicode="&#xa3;" horiz-adv-x="1212" d="M511.5 385.5q-28.5 -92.5 -73.5 -178.5h623v-207h-918q141 283 142 526q0 43 -2 64h-187v170h154q-30 94 -43.5 158t-13.5 143q0 114 59 202.5t167.5 137.5t252.5 49q112 0 197 -24t137.5 -58.5t76.5 -67.5l-127 -204q-23 38 -67 69.5t-100 50.5t-111 19 q-95 0 -149 -48.5t-54 -170.5q0 -103 49 -256h361v-170h-342q-3 -112 -31.5 -204.5z" />
<glyph unicode="&#xa4;" horiz-adv-x="1271" d="M1036 115l-182 187q-102 -58 -219 -58t-219 58l-183 -185l-153 162l183 163q-75 114 -75 248q0 68 20 131.5t57 117.5l-181 161l156 164l177 -186q101 56 218 57q111 0 208 -52l185 193l154 -164l-184 -164q40 -55 61.5 -121t21.5 -137q0 -68 -19.5 -131t-55.5 -117 l184 -166zM398.5 552q36.5 -63 99 -99.5t137.5 -36.5t137 36.5t97.5 99.5t35.5 138q0 74 -35.5 136.5t-97.5 99.5t-137 37t-137.5 -37t-99 -99.5t-36.5 -136.5q0 -75 36.5 -138z" />
<glyph unicode="&#xa5;" horiz-adv-x="1351" d="M899 831h291v-159h-388l-9 -15v-235h397v-160h-397v-262h-230v262h-409v160h409v244l-4 6h-405v159h306l-370 596h293l195 -376l90 -220h25l89 222l189 374h291z" />
<glyph unicode="&#xa6;" horiz-adv-x="847" d="M319 1700h209v-850h-209v850zM319 512h209v-852h-209v852z" />
<glyph unicode="&#xa7;" horiz-adv-x="1169" d="M916.5 206q35.5 -73 35.5 -177q0 -151 -69.5 -246t-179 -136.5t-234.5 -41.5q-70 0 -138.5 10.5t-113.5 32.5l47 225q24 -24 77.5 -40.5t107.5 -16.5q254 0 253 207q0 63 -29.5 108t-76 76.5t-127.5 73.5q-100 51 -167.5 99t-113 124t-45.5 182q0 83 30 153.5t80.5 122 t113.5 78.5q-72 63 -112 150.5t-40 216.5q0 122 72 207.5t183.5 127.5t227.5 42q147 0 252 -49l-47 -207q-25 25 -82.5 43t-122.5 18q-95 0 -164 -47t-69 -160q0 -69 32 -120t80 -86.5t132 -85.5q102 -61 164.5 -110.5t106.5 -129t44 -193.5q0 -111 -60.5 -196t-148.5 -127 q66 -55 101.5 -128zM437.5 589.5q36.5 -50.5 90 -84.5t142.5 -77q42 37 69 91t27 128q0 76 -35.5 129t-87 88.5t-139.5 81.5q-44 -39 -73.5 -97.5t-29.5 -137.5q0 -71 36.5 -121.5z" />
<glyph unicode="&#xa8;" horiz-adv-x="761" d="M41 1505h270v-272h-270v272zM451 1505h270v-272h-270v272z" />
<glyph unicode="&#xa9;" horiz-adv-x="1517" d="M390 68q-167 99 -263 269.5t-96 377.5q0 208 96 378.5t263 268.5t370 98t369.5 -98t263 -268.5t96.5 -378.5q0 -207 -96.5 -377.5t-263 -269.5t-369.5 -99t-370 99zM1067 176q135 84 211 226.5t76 312.5t-75.5 312.5t-211 226t-307.5 83.5t-308 -83.5t-211 -226 t-75 -312.5t75.5 -312.5t211 -226.5t307.5 -84t307 84zM591 364.5q-82 55.5 -121.5 146.5t-39.5 202q0 109 41.5 200.5t123.5 146t198 54.5q74 0 135 -19.5t108 -66.5l-61 -145q-41 41 -78.5 63.5t-81.5 22.5q-87 0 -131.5 -73.5t-44.5 -182.5q0 -118 44 -185t132 -67 q48 2 89 20t71 54l57 -142q-30 -30 -92.5 -57t-144.5 -27q-122 0 -204 55.5z" />
<glyph unicode="&#xaa;" horiz-adv-x="862" d="M176 593.5q-56 32.5 -84.5 88t-28.5 127.5q0 62 41.5 123t152 104t300.5 43v45q0 70 -33.5 108t-117.5 38q-69 0 -136.5 -22t-99.5 -56l-74 164q62 38 154.5 65t193.5 27q127 0 201 -37t104.5 -104.5t30.5 -167.5v-553h-198l-17 121q-51 -75 -109 -110.5t-143 -35.5 q-81 0 -137 32.5zM488 752.5q41 27.5 69 74.5v121q-12 2 -41 2q-90 0 -159.5 -29t-69.5 -92q0 -58 29 -81t90 -23q41 0 82 27.5z" />
<glyph unicode="&#xab;" horiz-adv-x="1517" d="M1018 534l340 -460h-287l-328 459l332 461h289zM416 534l340 -460h-287l-328 459l332 461h289z" />
<glyph unicode="&#xac;" horiz-adv-x="1169" d="M1006 705v-560h-203v359h-639v201h842z" />
<glyph unicode="&#xad;" horiz-adv-x="931" d="M139 705h654v-201h-654v201z" />
<glyph unicode="&#xae;" horiz-adv-x="1517" d="M1129.5 1362q166.5 -98 263 -268.5t96.5 -378.5q0 -207 -96.5 -377.5t-263 -269.5t-369.5 -99t-370 99t-263 269.5t-96 377.5q0 208 96 378.5t263 268.5t370 98t369.5 -98zM1067 176q135 84 211 226.5t76 312.5t-75.5 312.5t-211 226t-307.5 83.5t-308 -83.5t-211 -226 t-75 -312.5t75.5 -312.5t211 -226.5t307.5 -84t307 84zM1016.5 685.5q-46.5 -72.5 -142.5 -98.5l209 -251h-204l-191 250v-250h-174v784h252q83 0 150 -29.5t107 -91t40 -151.5t-46.5 -162.5zM737 694q76 0 113 36.5t37 111.5q0 79 -35.5 117t-118.5 38h-45v-303h49z" />
<glyph unicode="&#xaf;" horiz-adv-x="737" d="M41 1395h656v-187h-656v187z" />
<glyph unicode="&#xb0;" horiz-adv-x="858" d="M250 1090.5q-81 46.5 -128.5 129.5t-47.5 189q0 108 48 191t129 129.5t175 46.5q96 0 178 -47.5t131 -131.5t49 -188q0 -106 -48.5 -189t-131 -129.5t-178.5 -46.5q-95 0 -176 46.5zM538.5 1283q43.5 48 43.5 126q0 52 -20 92.5t-55.5 63t-80.5 22.5q-67 0 -110.5 -47 t-43.5 -131t44 -129t110 -45q69 0 112.5 48z" />
<glyph unicode="&#xb1;" horiz-adv-x="1171" d="M1087 950v-200h-397v-412h-221v412h-383v200h383v412h221v-412h397zM86 190h1001v-190h-1001v190z" />
<glyph unicode="&#xb2;" horiz-adv-x="929" d="M514 916.5q-31 -18.5 -58 -33.5q-66 -36 -99 -64t-48 -70h529v-174h-738q-14 36 -14 88q0 71 21 129.5t75.5 114t151.5 109.5l53 27q76 40 121.5 70t77.5 76t32 107q0 57 -43.5 95t-121.5 38q-48 0 -89.5 -22.5t-68 -57t-29.5 -69.5l-180 65q11 63 58 124t129 100t190 39 q117 0 201.5 -36t129 -102t44.5 -157q0 -80 -31 -138.5t-77 -99.5t-127 -98l-32 -23q-26 -19 -57 -37.5z" />
<glyph unicode="&#xb3;" horiz-adv-x="868" d="M200 567.5q-80 20.5 -151 63.5l74 170q48 -40 107 -62t124 -22q108 0 160.5 41.5t52.5 111.5q0 84 -67.5 114t-184.5 30h-79v141h90q99 0 150.5 42.5t51.5 111.5q0 67 -50.5 97t-123.5 30q-147 0 -229 -74l-66 151q53 41 139.5 69t186.5 28q115 0 200.5 -31t132 -89 t46.5 -138q0 -54 -28.5 -111.5t-78 -99.5t-108.5 -56q70 0 126.5 -33t89 -87t32.5 -113q0 -94 -55 -163.5t-150.5 -105.5t-216.5 -36q-95 0 -175 20.5z" />
<glyph unicode="&#xb4;" horiz-adv-x="561" d="M241 1599h279l-256 -413h-223z" />
<glyph unicode="&#xb5;" horiz-adv-x="1142" d="M160 1020h246v-592q0 -59 21.5 -107.5t61 -76t93.5 -27.5q51 0 89.5 32.5t59.5 84t21 108.5v578h245v-721q0 -91 27 -178t61 -121h-227q-32 22 -52 74t-20 108q-7 -50 -31.5 -96t-68.5 -76t-104 -30q-85 0 -142 39.5t-57 136.5v-602h-223v1466z" />
<glyph unicode="&#xb6;" horiz-adv-x="1280" d="M506 725q-122 0 -219 57.5t-151 157t-54 221.5q0 123 47.5 220t152 153.5t267.5 56.5l559 2v-1593h-207v1438h-190v-1438h-205v725z" />
<glyph unicode="&#xb7;" horiz-adv-x="477" d="M118 821h240v-305h-240v305z" />
<glyph unicode="&#xb8;" horiz-adv-x="602" d="M127 -529.5q-57 25.5 -86 52.5l43 127q43 -23 77 -33t67 -10q54 0 88 27.5t34 64.5q0 52 -39 74t-98 22q-16 0 -34.5 -2.5t-26.5 -3.5l51 244h184l-39 -150q58 0 107.5 -28.5t77.5 -75.5t28 -101q0 -136 -87.5 -184.5t-233.5 -48.5q-56 0 -113 25.5z" />
<glyph unicode="&#xb9;" horiz-adv-x="563" d="M168 1552l227 56v-1033h-227v977z" />
<glyph unicode="&#xba;" horiz-adv-x="966" d="M254.5 621.5q-94.5 52.5 -144 150.5t-49.5 236t51.5 236.5t148 151t231.5 52.5q132 0 225 -54t140.5 -152.5t47.5 -233.5q0 -133 -49 -232t-144.5 -153t-228.5 -54q-134 0 -228.5 52.5zM614 805q43 68 43 203t-43 203.5t-127 68.5q-89 0 -133.5 -64.5t-44.5 -207.5 q0 -142 44 -206.5t134 -64.5q84 0 127 68z" />
<glyph unicode="&#xbb;" horiz-adv-x="1507" d="M772 532l-328 -458h-286l340 460l-346 459h288zM1366 532l-328 -458h-286l340 460l-347 459h289z" />
<glyph unicode="&#xbc;" horiz-adv-x="1843" d="M168 1470l227 56v-1033h-227v977zM1081 1634h207l-782 -1654l-205 -3zM1804 119h-143v-184h-207v184h-489l233 815h238l-164 -530l-56 -131h242l14 288h189v-288h143v-154z" />
<glyph unicode="&#xbd;" horiz-adv-x="1892" d="M168 1470l227 56v-1033h-227v977zM1081 1634h207l-782 -1654l-205 -3zM1477 302.5q-31 -18.5 -58 -33.5q-66 -36 -99 -64t-48 -70h529v-174h-738q-14 36 -14 88q0 71 21 129.5t75.5 114t151.5 109.5l53 27q76 40 121.5 70t77.5 76t32 107q0 57 -43.5 95t-121.5 38 q-48 0 -89.5 -22.5t-68 -57t-29.5 -69.5l-180 65q11 63 58 124t129 100t190 39q117 0 201.5 -36t129 -102t44.5 -157q0 -80 -31 -138.5t-77 -99.5t-127 -98l-32 -23q-26 -19 -57 -37.5z" />
<glyph unicode="&#xbe;" horiz-adv-x="2148" d="M200 485.5q-80 20.5 -151 63.5l74 170q48 -40 107 -62t124 -22q108 0 160.5 41.5t52.5 111.5q0 84 -67.5 114t-184.5 30h-79v141h90q99 0 150.5 42.5t51.5 111.5q0 67 -50.5 97t-123.5 30q-147 0 -229 -74l-66 151q53 41 139.5 69t186.5 28q115 0 200.5 -31t132 -89 t46.5 -138q0 -54 -28.5 -111.5t-78 -99.5t-108.5 -56q70 0 126.5 -33t89 -87t32.5 -113q0 -94 -55 -163.5t-150.5 -105.5t-216.5 -36q-95 0 -175 20.5zM1386 1634h207l-782 -1654l-205 -3zM2109 119h-143v-184h-207v184h-489l233 815h238l-164 -530l-56 -131h242l14 288h189 v-288h143v-154z" />
<glyph unicode="&#xbf;" horiz-adv-x="868" d="M387 1247h231v-305h-231v305zM631 612q0 -90 -25 -150.5t-62 -96.5t-95 -78q-46 -33 -75.5 -61t-48 -68t-18.5 -97q0 -85 51.5 -131.5t135.5 -46.5q88 0 153.5 46.5t95.5 107.5l146 -199q-60 -75 -166 -128.5t-236 -53.5q-223 0 -334.5 98t-111.5 281q0 74 22.5 127 t58 89.5t91.5 80.5q61 48 100 90t64.5 106t25.5 156v61h213q15 -75 15 -133z" />
<glyph unicode="&#xc0;" horiz-adv-x="1161" d="M838 207h-510l-76 -207h-287l604 1452h21l606 -1452h-278zM762 406l-150 389l-34 114l-33 -114l-144 -389h361zM263 1935h252l200 -374h-196z" />
<glyph unicode="&#xc1;" horiz-adv-x="1161" d="M838 207h-510l-76 -207h-287l604 1452h21l606 -1452h-278zM762 406l-150 389l-34 114l-33 -114l-144 -389h361zM662 1935h252l-256 -374h-197z" />
<glyph unicode="&#xc2;" horiz-adv-x="1161" d="M838 207h-510l-76 -207h-287l604 1452h21l606 -1452h-278zM762 406l-150 389l-34 114l-33 -114l-144 -389h361zM748 1561l-169 173l-181 -173h-205l322 374h126l314 -374h-207z" />
<glyph unicode="&#xc3;" horiz-adv-x="1161" d="M838 207h-510l-76 -207h-287l604 1452h21l606 -1452h-278zM762 406l-150 389l-34 114l-33 -114l-144 -389h361zM618.5 1584q-35.5 17 -71.5 48q-27 26 -49 37.5t-53 11.5q-35 0 -67.5 -24.5t-51.5 -73.5l-106 84q34 83 93.5 135.5t133.5 52.5q60 0 96.5 -17t67.5 -48 q23 -23 45.5 -34t56.5 -11q38 0 68 27.5t41 78.5l114 -88q-6 -48 -37.5 -93.5t-81 -74t-106.5 -28.5t-92.5 17z" />
<glyph unicode="&#xc4;" horiz-adv-x="1161" d="M838 207h-510l-76 -207h-287l604 1452h21l606 -1452h-278zM762 406l-150 389l-34 114l-33 -114l-144 -389h361zM238 1833h270v-272h-270v272zM648 1833h270v-272h-270v272z" />
<glyph unicode="&#xc5;" horiz-adv-x="1200" d="M838 207h-510l-76 -207h-287l575 1381q-60 14 -108.5 50.5t-76 91.5t-27.5 119q0 78 37.5 139.5t102 95.5t140.5 34t140 -35t102.5 -96.5t38.5 -137.5q0 -75 -36 -134.5t-97 -95t-133 -38.5l573 -1374h-278zM514.5 1541q37.5 -36 93.5 -36t93.5 36t37.5 104 q0 70 -36.5 103.5t-94.5 33.5q-57 0 -94 -33.5t-37 -103.5q0 -68 37.5 -104zM762 406l-150 389l-34 114l-33 -114l-144 -389h361z" />
<glyph unicode="&#xc6;" horiz-adv-x="1718" d="M1634 225v-225h-786v322h-381l-166 -322h-291l797 1427h786v-217h-495v-340h395v-217h-395v-428h536zM848 512v581l-111 -245l-173 -336h284z" />
<glyph unicode="&#xc7;" horiz-adv-x="1079" d="M781 -145.5q49 -28.5 77.5 -75.5t28.5 -101q0 -136 -87.5 -184.5t-234.5 -48.5q-56 0 -113 25.5t-85 52.5l43 127q43 -23 76.5 -33t66.5 -10q54 0 88.5 27.5t34.5 64.5q0 52 -39.5 74t-97.5 22q-16 0 -35 -2.5t-27 -3.5l43 204q-126 33 -226 125t-159 247.5t-59 367.5 q0 226 80 388.5t216.5 246.5t305.5 84q103 0 175 -20t113 -46t78 -61l-114 -215q-36 39 -63.5 60t-70 34t-108.5 13q-102 0 -176 -60t-113 -166t-39 -243q0 -172 40.5 -294t110 -183.5t155.5 -61.5q91 0 161 25.5t107 64.5l113 -203q-57 -47 -137 -80.5t-212 -39.5l-24 -93 q58 0 107 -28.5z" />
<glyph unicode="&#xc8;" horiz-adv-x="1036" d="M952 231v-231h-786v1427h745v-223h-489v-334h389v-217h-389v-422h530zM240 1935h252l200 -374h-196z" />
<glyph unicode="&#xc9;" horiz-adv-x="1036" d="M952 231v-231h-786v1427h745v-223h-489v-334h389v-217h-389v-422h530zM639 1935h252l-256 -374h-197z" />
<glyph unicode="&#xca;" horiz-adv-x="1036" d="M952 231v-231h-786v1427h745v-223h-489v-334h389v-217h-389v-422h530zM725 1561l-169 173l-181 -173h-205l322 374h126l314 -374h-207z" />
<glyph unicode="&#xcb;" horiz-adv-x="1036" d="M952 231v-231h-786v1427h745v-223h-489v-334h389v-217h-389v-422h530zM215 1833h270v-272h-270v272zM625 1833h270v-272h-270v272z" />
<glyph unicode="&#xcc;" horiz-adv-x="593" d="M166 1427h262v-1427h-262v1427zM-16 1935h252l200 -374h-196z" />
<glyph unicode="&#xcd;" horiz-adv-x="593" d="M166 1427h262v-1427h-262v1427zM383 1935h252l-256 -374h-197z" />
<glyph unicode="&#xce;" horiz-adv-x="593" d="M166 1427h262v-1427h-262v1427zM469 1561l-169 173l-181 -173h-205l322 374h126l314 -374h-207z" />
<glyph unicode="&#xcf;" horiz-adv-x="593" d="M166 1427h262v-1427h-262v1427zM-41 1833h270v-272h-270v272zM369 1833h270v-272h-270v272z" />
<glyph unicode="&#xd0;" horiz-adv-x="1243" d="M1015 1251.5q167 -175.5 167 -520.5q0 -224 -75.5 -388.5t-221.5 -253.5t-353 -89h-366v647h-123v174h123v606h369q313 0 480 -175.5zM755 295q87 70 123.5 182t36.5 248q0 217 -91.5 357.5t-297.5 140.5h-96v-402h262v-174h-262v-422h96q142 0 229 70z" />
<glyph unicode="&#xd1;" horiz-adv-x="1353" d="M1182 1427v-1456h-21l-684 781l-63 82l10 -199v-635h-252v1452h23l673 -786l72 -94l-10 196v659h252zM693.5 1584q-35.5 17 -71.5 48q-27 26 -49 37.5t-53 11.5q-35 0 -67.5 -24.5t-51.5 -73.5l-106 84q34 83 93.5 135.5t133.5 52.5q60 0 96.5 -17t67.5 -48 q23 -23 45.5 -34t56.5 -11q38 0 68 27.5t41 78.5l114 -88q-6 -48 -37.5 -93.5t-81 -74t-106.5 -28.5t-92.5 17z" />
<glyph unicode="&#xd2;" horiz-adv-x="1347" d="M351 66q-134 91 -202.5 257t-68.5 392q0 223 68 389.5t200.5 257t321.5 90.5q196 0 330 -91.5t201 -257.5t67 -388q0 -225 -69.5 -391.5t-202.5 -257.5t-320 -91q-191 0 -325 91zM839 253q72 58 114 177t42 291q0 253 -85.5 385.5t-239.5 132.5q-151 0 -233.5 -132.5 t-82.5 -387.5q0 -174 39.5 -291.5t112 -175t170.5 -57.5q91 0 163 58zM359 1935h252l200 -374h-196z" />
<glyph unicode="&#xd3;" horiz-adv-x="1347" d="M351 66q-134 91 -202.5 257t-68.5 392q0 223 68 389.5t200.5 257t321.5 90.5q196 0 330 -91.5t201 -257.5t67 -388q0 -225 -69.5 -391.5t-202.5 -257.5t-320 -91q-191 0 -325 91zM839 253q72 58 114 177t42 291q0 253 -85.5 385.5t-239.5 132.5q-151 0 -233.5 -132.5 t-82.5 -387.5q0 -174 39.5 -291.5t112 -175t170.5 -57.5q91 0 163 58zM758 1935h252l-256 -374h-197z" />
<glyph unicode="&#xd4;" horiz-adv-x="1347" d="M351 66q-134 91 -202.5 257t-68.5 392q0 223 68 389.5t200.5 257t321.5 90.5q196 0 330 -91.5t201 -257.5t67 -388q0 -225 -69.5 -391.5t-202.5 -257.5t-320 -91q-191 0 -325 91zM839 253q72 58 114 177t42 291q0 253 -85.5 385.5t-239.5 132.5q-151 0 -233.5 -132.5 t-82.5 -387.5q0 -174 39.5 -291.5t112 -175t170.5 -57.5q91 0 163 58zM844 1561l-169 173l-181 -173h-205l322 374h126l314 -374h-207z" />
<glyph unicode="&#xd5;" horiz-adv-x="1347" d="M351 66q-134 91 -202.5 257t-68.5 392q0 223 68 389.5t200.5 257t321.5 90.5q196 0 330 -91.5t201 -257.5t67 -388q0 -225 -69.5 -391.5t-202.5 -257.5t-320 -91q-191 0 -325 91zM839 253q72 58 114 177t42 291q0 253 -85.5 385.5t-239.5 132.5q-151 0 -233.5 -132.5 t-82.5 -387.5q0 -174 39.5 -291.5t112 -175t170.5 -57.5q91 0 163 58zM714.5 1584q-35.5 17 -71.5 48q-27 26 -49 37.5t-53 11.5q-35 0 -67.5 -24.5t-51.5 -73.5l-106 84q34 83 93.5 135.5t133.5 52.5q60 0 96.5 -17t67.5 -48q23 -23 45.5 -34t56.5 -11q38 0 68 27.5 t41 78.5l114 -88q-6 -48 -37.5 -93.5t-81 -74t-106.5 -28.5t-92.5 17z" />
<glyph unicode="&#xd6;" horiz-adv-x="1347" d="M351 66q-134 91 -202.5 257t-68.5 392q0 223 68 389.5t200.5 257t321.5 90.5q196 0 330 -91.5t201 -257.5t67 -388q0 -225 -69.5 -391.5t-202.5 -257.5t-320 -91q-191 0 -325 91zM839 253q72 58 114 177t42 291q0 253 -85.5 385.5t-239.5 132.5q-151 0 -233.5 -132.5 t-82.5 -387.5q0 -174 39.5 -291.5t112 -175t170.5 -57.5q91 0 163 58zM334 1833h270v-272h-270v272zM744 1833h270v-272h-270v272z" />
<glyph unicode="&#xd7;" horiz-adv-x="1198" d="M874 160l-286 294l-275 -292l-157 155l272 290l-287 294l144 141l283 -289l274 289l155 -155l-270 -289l291 -297z" />
<glyph unicode="&#xd8;" horiz-adv-x="1347" d="M1218 1054.5q50 -150.5 50 -341.5q0 -225 -69.5 -391.5t-202.5 -257.5t-320 -91q-174 0 -303 77l-103 -173l-141 78l120 201q-83 96 -126 238t-43 319q0 223 68 390t200.5 258t321.5 91q151 0 266 -56l98 171l144 -74l-108 -191q98 -97 148 -247.5zM436.5 1108 q-82.5 -135 -82.5 -391q0 -216 62 -347l427 814q-72 59 -173 59q-151 0 -233.5 -135zM839 247.5q72 59.5 114 179.5t42 292q0 238 -75 372l-439 -821q78 -82 195 -82q91 0 163 59.5z" />
<glyph unicode="&#xd9;" horiz-adv-x="1271" d="M273 97.5q-138 124.5 -138 412.5v917h266v-946q0 -162 71.5 -223t166.5 -61q96 0 163.5 60t67.5 224v946h267v-917q0 -288 -134.5 -412.5t-359.5 -124.5q-232 0 -370 124.5zM320 1935h252l200 -374h-196z" />
<glyph unicode="&#xda;" horiz-adv-x="1271" d="M273 97.5q-138 124.5 -138 412.5v917h266v-946q0 -162 71.5 -223t166.5 -61q96 0 163.5 60t67.5 224v946h267v-917q0 -288 -134.5 -412.5t-359.5 -124.5q-232 0 -370 124.5zM719 1935h252l-256 -374h-197z" />
<glyph unicode="&#xdb;" horiz-adv-x="1271" d="M273 97.5q-138 124.5 -138 412.5v917h266v-946q0 -162 71.5 -223t166.5 -61q96 0 163.5 60t67.5 224v946h267v-917q0 -288 -134.5 -412.5t-359.5 -124.5q-232 0 -370 124.5zM805 1561l-169 173l-181 -173h-205l322 374h126l314 -374h-207z" />
<glyph unicode="&#xdc;" horiz-adv-x="1271" d="M273 97.5q-138 124.5 -138 412.5v917h266v-946q0 -162 71.5 -223t166.5 -61q96 0 163.5 60t67.5 224v946h267v-917q0 -288 -134.5 -412.5t-359.5 -124.5q-232 0 -370 124.5zM295 1833h270v-272h-270v272zM705 1833h270v-272h-270v272z" />
<glyph unicode="&#xdd;" horiz-adv-x="1101" d="M682 558v-558h-262v577l-451 850h289l300 -620l288 620h287zM662 1935h252l-256 -374h-197z" />
<glyph unicode="&#xde;" horiz-adv-x="1146" d="M959.5 1089.5q146.5 -114.5 146.5 -376.5q0 -138 -59 -250t-188 -179t-329 -67h-104v-217h-254v1427h254v-223h127q260 0 406.5 -114.5zM716 456.5q67 30.5 96.5 90t29.5 151.5q0 147 -66 223t-229 76h-121v-571h111q112 0 179 30.5z" />
<glyph unicode="&#xdf;" horiz-adv-x="1216" d="M989 800q68 -52 107 -133.5t39 -181.5q0 -133 -42 -245t-137 -181t-243 -69q-84 0 -133 22l-23 205q49 -18 123 -18q92 0 134 66.5t42 195.5q0 130 -72 199t-219 69v191q201 0 201 276q0 111 -45 152t-119 41q-68 0 -111.5 -41t-63 -100t-19.5 -113v-1135h-258v807h-105 v213h105v94q0 159 72 266t179 158t213 51q214 0 310 -103t96 -274q0 -124 -50 -218.5t-135 -125.5q86 -16 154 -68z" />
<glyph unicode="&#xe0;" horiz-adv-x="1017" d="M202.5 12q-62.5 41 -93.5 111t-31 156q0 75 49.5 149t176.5 126t343 52v47q0 84 -40.5 130t-141.5 46q-80 0 -156.5 -27t-111.5 -67l-82 197q70 47 173 79.5t220 32.5q146 0 231.5 -45t120.5 -126.5t35 -202.5v-670h-219l-19 145q-54 -88 -128 -131t-173 -43 q-91 0 -153.5 41zM564 206q52 38 83 95v145q-14 2 -49 3q-103 0 -184.5 -34.5t-81.5 -111.5q0 -73 32 -104t101 -31q47 0 99 38zM133 1599h279l200 -413h-223z" />
<glyph unicode="&#xe1;" horiz-adv-x="1017" d="M202.5 12q-62.5 41 -93.5 111t-31 156q0 75 49.5 149t176.5 126t343 52v47q0 84 -40.5 130t-141.5 46q-80 0 -156.5 -27t-111.5 -67l-82 197q70 47 173 79.5t220 32.5q146 0 231.5 -45t120.5 -126.5t35 -202.5v-670h-219l-19 145q-54 -88 -128 -131t-173 -43 q-91 0 -153.5 41zM564 206q52 38 83 95v145q-14 2 -49 3q-103 0 -184.5 -34.5t-81.5 -111.5q0 -73 32 -104t101 -31q47 0 99 38zM600 1599h279l-256 -413h-223z" />
<glyph unicode="&#xe2;" horiz-adv-x="1017" d="M202.5 12q-62.5 41 -93.5 111t-31 156q0 75 49.5 149t176.5 126t343 52v47q0 84 -40.5 130t-141.5 46q-80 0 -156.5 -27t-111.5 -67l-82 197q70 47 173 79.5t220 32.5q146 0 231.5 -45t120.5 -126.5t35 -202.5v-670h-219l-19 145q-54 -88 -128 -131t-173 -43 q-91 0 -153.5 41zM564 206q52 38 83 95v145q-14 2 -49 3q-103 0 -184.5 -34.5t-81.5 -111.5q0 -73 32 -104t101 -31q47 0 99 38zM656 1186l-149 196l-153 -196h-204l293 413h126l293 -413h-206z" />
<glyph unicode="&#xe3;" horiz-adv-x="1017" d="M202.5 12q-62.5 41 -93.5 111t-31 156q0 75 49.5 149t176.5 126t343 52v47q0 84 -40.5 130t-141.5 46q-80 0 -156.5 -27t-111.5 -67l-82 197q70 47 173 79.5t220 32.5q146 0 231.5 -45t120.5 -126.5t35 -202.5v-670h-219l-19 145q-54 -88 -128 -131t-173 -43 q-91 0 -153.5 41zM564 206q52 38 83 95v145q-14 2 -49 3q-103 0 -184.5 -34.5t-81.5 -111.5q0 -73 32 -104t101 -31q47 0 99 38zM544.5 1203.5q-37.5 17.5 -73.5 49.5q-28 26 -51 39t-55 13q-36 0 -67.5 -25.5t-51.5 -77.5l-115 88q39 89 98.5 143t139.5 54q65 0 102 -17.5 t68 -48.5q26 -26 48 -37.5t60 -11.5q39 0 69 28t40 83l125 -92q-7 -50 -41.5 -98t-86 -77.5t-110.5 -29.5q-61 0 -98.5 17.5z" />
<glyph unicode="&#xe4;" horiz-adv-x="1017" d="M202.5 12q-62.5 41 -93.5 111t-31 156q0 75 49.5 149t176.5 126t343 52v47q0 84 -40.5 130t-141.5 46q-80 0 -156.5 -27t-111.5 -67l-82 197q70 47 173 79.5t220 32.5q146 0 231.5 -45t120.5 -126.5t35 -202.5v-670h-219l-19 145q-54 -88 -128 -131t-173 -43 q-91 0 -153.5 41zM564 206q52 38 83 95v145q-14 2 -49 3q-103 0 -184.5 -34.5t-81.5 -111.5q0 -73 32 -104t101 -31q47 0 99 38zM166 1505h270v-272h-270v272zM576 1505h270v-272h-270v272z" />
<glyph unicode="&#xe5;" horiz-adv-x="1017" d="M202.5 12q-62.5 41 -93.5 111t-31 156q0 75 49.5 149t176.5 126t343 52v47q0 84 -40.5 130t-141.5 46q-80 0 -156.5 -27t-111.5 -67l-82 197q70 47 173 79.5t220 32.5q146 0 231.5 -45t120.5 -126.5t35 -202.5v-670h-219l-19 145q-54 -88 -128 -131t-173 -43 q-91 0 -153.5 41zM564 206q52 38 83 95v145q-14 2 -49 3q-103 0 -184.5 -34.5t-81.5 -111.5q0 -73 32 -104t101 -31q47 0 99 38zM358 1233q-68 37 -108.5 102t-40.5 146q0 83 40.5 148t108.5 100.5t148 35.5t148.5 -36t109.5 -101t41 -147q0 -81 -41 -146t-109.5 -102 t-148.5 -37t-148 37zM605 1373q40 38 40 110q0 75 -39.5 110t-99.5 35t-98.5 -35t-38.5 -110q0 -72 39 -110t98 -38t99 38z" />
<glyph unicode="&#xe6;" horiz-adv-x="1572" d="M1481 426h-617q6 -125 69 -192.5t185 -67.5q63 0 136 28t108 68l82 -194q-144 -96 -369 -97q-254 0 -354 179q-66 -95 -166 -137t-199 -42q-91 0 -153.5 39t-93.5 106.5t-31 153.5q0 80 45.5 155.5t168 128t335.5 52.5l-2 47q0 84 -36 130t-130 46q-76 0 -152 -27 t-110 -67l-82 197q70 47 172 79.5t215 32.5q105 0 173.5 -29t106.5 -85q109 115 289 114q220 0 316 -133.5t96 -388.5q0 -65 -2 -96zM1225 588q0 150 -38.5 206t-109.5 56q-99 0 -154 -74t-61 -190zM629 446q-14 2 -47 3q-102 0 -179 -34.5t-77 -111.5q0 -72 33.5 -103.5 t99.5 -31.5q45 0 90.5 37t77.5 96z" />
<glyph unicode="&#xe7;" horiz-adv-x="923" d="M770 21.5q-71 -33.5 -162 -43.5l-24 -95q58 0 107 -28.5t77.5 -75.5t28.5 -101q0 -136 -87.5 -184.5t-234.5 -48.5q-56 0 -113 25.5t-86 52.5l43 127q43 -23 77 -33t67 -10q54 0 88.5 27.5t34.5 64.5q0 52 -39.5 74t-97.5 22q-16 0 -35 -2.5t-27 -3.5l42 200 q-115 27 -191 101.5t-113 181.5t-37 234q0 145 55.5 268t164 196.5t259.5 73.5q94 0 164.5 -19.5t134.5 -72.5l-84 -217q-30 44 -87.5 70t-112.5 26q-223 0 -224 -323q0 -169 55 -246.5t169 -77.5q69 0 125.5 26t89.5 62l77 -182q-33 -35 -104 -68.5z" />
<glyph unicode="&#xe8;" horiz-adv-x="1062" d="M292.5 43.5q-107.5 70.5 -157 188t-49.5 266.5q0 152 56 276t163.5 197t255.5 73q221 0 316.5 -127t95.5 -380q0 -49 -4 -111h-615q6 -124 69 -191t185 -67q63 0 136 28t108 68l82 -194q-144 -96 -369 -97q-165 0 -272.5 70.5zM713 586q0 151 -37.5 207.5t-108.5 56.5 q-99 0 -154 -74t-61 -190h361zM194 1599h279l200 -413h-223z" />
<glyph unicode="&#xe9;" horiz-adv-x="1062" d="M292.5 43.5q-107.5 70.5 -157 188t-49.5 266.5q0 152 56 276t163.5 197t255.5 73q221 0 316.5 -127t95.5 -380q0 -49 -4 -111h-615q6 -124 69 -191t185 -67q63 0 136 28t108 68l82 -194q-144 -96 -369 -97q-165 0 -272.5 70.5zM713 586q0 151 -37.5 207.5t-108.5 56.5 q-99 0 -154 -74t-61 -190h361zM661 1599h279l-256 -413h-223z" />
<glyph unicode="&#xea;" horiz-adv-x="1062" d="M292.5 43.5q-107.5 70.5 -157 188t-49.5 266.5q0 152 56 276t163.5 197t255.5 73q221 0 316.5 -127t95.5 -380q0 -49 -4 -111h-615q6 -124 69 -191t185 -67q63 0 136 28t108 68l82 -194q-144 -96 -369 -97q-165 0 -272.5 70.5zM713 586q0 151 -37.5 207.5t-108.5 56.5 q-99 0 -154 -74t-61 -190h361zM717 1186l-149 196l-153 -196h-204l293 413h126l293 -413h-206z" />
<glyph unicode="&#xeb;" horiz-adv-x="1062" d="M292.5 43.5q-107.5 70.5 -157 188t-49.5 266.5q0 152 56 276t163.5 197t255.5 73q221 0 316.5 -127t95.5 -380q0 -49 -4 -111h-615q6 -124 69 -191t185 -67q63 0 136 28t108 68l82 -194q-144 -96 -369 -97q-165 0 -272.5 70.5zM713 586q0 151 -37.5 207.5t-108.5 56.5 q-99 0 -154 -74t-61 -190h361zM227 1505h270v-272h-270v272zM637 1505h270v-272h-270v272z" />
<glyph unicode="&#xec;" horiz-adv-x="573" d="M154 1020h266v-1020h-266v1020zM-86 1599h279l200 -413h-223z" />
<glyph unicode="&#xed;" horiz-adv-x="573" d="M154 1020h266v-1020h-266v1020zM381 1599h279l-256 -413h-223z" />
<glyph unicode="&#xee;" horiz-adv-x="573" d="M154 1020h266v-1020h-266v1020zM437 1186l-149 196l-153 -196h-204l293 413h126l293 -413h-206z" />
<glyph unicode="&#xef;" horiz-adv-x="573" d="M154 1020h266v-1020h-266v1020zM-53 1505h270v-272h-270v272zM357 1505h270v-272h-270v272z" />
<glyph unicode="&#xf0;" horiz-adv-x="1105" d="M924.5 1039.5q85.5 -213.5 85.5 -464.5q0 -207 -65.5 -340.5t-172.5 -194t-235 -60.5q-125 0 -226 63t-159 175.5t-58 252.5q0 147 51.5 261t146.5 177.5t222 63.5q69 0 120.5 -26t81 -66t40.5 -82q-10 118 -74 230t-152 190l-94 -125l-149 96l95 123q-47 24 -92 39 t-73 16l64 174q40 -3 99 -22t123 -46l113 142l150 -100l-101 -135q174 -128 259.5 -341.5zM704.5 256.5q51.5 88.5 51.5 230.5q0 95 -9 143t-32 81q-26 35 -68 58.5t-94 23.5q-62 0 -109 -41t-71.5 -112t-24.5 -157q0 -95 24.5 -166t71 -110t109.5 -39q100 0 151.5 88.5z " />
<glyph unicode="&#xf1;" horiz-adv-x="1144" d="M924 947.5q77 -96.5 77 -273.5v-674h-262v651q0 87 -36.5 139t-108.5 52q-48 0 -89.5 -24.5t-66 -68t-24.5 -98.5v-651h-262v1020h237l5 -134q105 159 300 158q153 0 230 -96.5zM640.5 1203.5q-37.5 17.5 -73.5 49.5q-28 26 -51 39t-55 13q-36 0 -67.5 -25.5t-51.5 -77.5 l-115 88q39 89 98.5 143t139.5 54q65 0 102 -17.5t68 -48.5q26 -26 48 -37.5t60 -11.5q39 0 69 28t40 83l125 -92q-7 -50 -41.5 -98t-86 -77.5t-110.5 -29.5q-61 0 -98.5 17.5z" />
<glyph unicode="&#xf2;" horiz-adv-x="1114" d="M302.5 43q-105.5 63 -161 182.5t-55.5 286.5t57 287t165 182.5t257 62.5q148 0 252.5 -65t157.5 -184.5t53 -282.5q0 -162 -55 -282t-161 -185t-255 -65t-254.5 63zM706 267q50 83 50 245q0 163 -50 246.5t-145 83.5q-100 0 -151.5 -79t-51.5 -251t51.5 -250t151.5 -78 q95 0 145 83zM184 1599h279l200 -413h-223z" />
<glyph unicode="&#xf3;" horiz-adv-x="1114" d="M302.5 43q-105.5 63 -161 182.5t-55.5 286.5t57 287t165 182.5t257 62.5q148 0 252.5 -65t157.5 -184.5t53 -282.5q0 -162 -55 -282t-161 -185t-255 -65t-254.5 63zM706 267q50 83 50 245q0 163 -50 246.5t-145 83.5q-100 0 -151.5 -79t-51.5 -251t51.5 -250t151.5 -78 q95 0 145 83zM651 1599h279l-256 -413h-223z" />
<glyph unicode="&#xf4;" horiz-adv-x="1114" d="M302.5 43q-105.5 63 -161 182.5t-55.5 286.5t57 287t165 182.5t257 62.5q148 0 252.5 -65t157.5 -184.5t53 -282.5q0 -162 -55 -282t-161 -185t-255 -65t-254.5 63zM706 267q50 83 50 245q0 163 -50 246.5t-145 83.5q-100 0 -151.5 -79t-51.5 -251t51.5 -250t151.5 -78 q95 0 145 83zM707 1186l-149 196l-153 -196h-204l293 413h126l293 -413h-206z" />
<glyph unicode="&#xf5;" horiz-adv-x="1114" d="M302.5 43q-105.5 63 -161 182.5t-55.5 286.5t57 287t165 182.5t257 62.5q148 0 252.5 -65t157.5 -184.5t53 -282.5q0 -162 -55 -282t-161 -185t-255 -65t-254.5 63zM706 267q50 83 50 245q0 163 -50 246.5t-145 83.5q-100 0 -151.5 -79t-51.5 -251t51.5 -250t151.5 -78 q95 0 145 83zM595.5 1203.5q-37.5 17.5 -73.5 49.5q-28 26 -51 39t-55 13q-36 0 -67.5 -25.5t-51.5 -77.5l-115 88q39 89 98.5 143t139.5 54q65 0 102 -17.5t68 -48.5q26 -26 48 -37.5t60 -11.5q39 0 69 28t40 83l125 -92q-7 -50 -41.5 -98t-86 -77.5t-110.5 -29.5 q-61 0 -98.5 17.5z" />
<glyph unicode="&#xf6;" horiz-adv-x="1114" d="M302.5 43q-105.5 63 -161 182.5t-55.5 286.5t57 287t165 182.5t257 62.5q148 0 252.5 -65t157.5 -184.5t53 -282.5q0 -162 -55 -282t-161 -185t-255 -65t-254.5 63zM706 267q50 83 50 245q0 163 -50 246.5t-145 83.5q-100 0 -151.5 -79t-51.5 -251t51.5 -250t151.5 -78 q95 0 145 83zM217 1505h270v-272h-270v272zM627 1505h270v-272h-270v272z" />
<glyph unicode="&#xf7;" horiz-adv-x="1110" d="M418 1198h272v-264h-272v264zM59 705h992v-201h-992v201zM418 274h272v-264h-272v264z" />
<glyph unicode="&#xf8;" horiz-adv-x="1132" d="M997 729q29 -97 29 -217q0 -162 -55.5 -282t-161.5 -185t-254 -65q-134 0 -233 51l-101 -156l-121 82l106 164q-122 140 -122 391q0 167 57 287t165 182.5t257 62.5q135 0 235 -55l105 162l121 -78l-113 -178q57 -69 86 -166zM408 763q-52 -79 -52 -251q0 -125 28 -201 l293 484q-46 47 -118 47q-99 0 -151 -79zM704 267q50 83 50 245q0 106 -22 178l-293 -466q46 -40 120 -40q95 0 145 83z" />
<glyph unicode="&#xf9;" horiz-adv-x="1112" d="M961 1020v-1020h-232l-5 132q-45 -71 -111 -114t-169 -43q-152 0 -226.5 96.5t-74.5 274.5v674h256v-651q0 -89 32.5 -140t103.5 -51q48 0 86 24t61 67.5t23 99.5v651h256zM188 1599h279l200 -413h-223z" />
<glyph unicode="&#xfa;" horiz-adv-x="1112" d="M961 1020v-1020h-232l-5 132q-45 -71 -111 -114t-169 -43q-152 0 -226.5 96.5t-74.5 274.5v674h256v-651q0 -89 32.5 -140t103.5 -51q48 0 86 24t61 67.5t23 99.5v651h256zM655 1599h279l-256 -413h-223z" />
<glyph unicode="&#xfb;" horiz-adv-x="1112" d="M961 1020v-1020h-232l-5 132q-45 -71 -111 -114t-169 -43q-152 0 -226.5 96.5t-74.5 274.5v674h256v-651q0 -89 32.5 -140t103.5 -51q48 0 86 24t61 67.5t23 99.5v651h256zM711 1186l-149 196l-153 -196h-204l293 413h126l293 -413h-206z" />
<glyph unicode="&#xfc;" horiz-adv-x="1112" d="M961 1020v-1020h-232l-5 132q-45 -71 -111 -114t-169 -43q-152 0 -226.5 96.5t-74.5 274.5v674h256v-651q0 -89 32.5 -140t103.5 -51q48 0 86 24t61 67.5t23 99.5v651h256zM221 1505h270v-272h-270v272zM631 1505h270v-272h-270v272z" />
<glyph unicode="&#xfd;" horiz-adv-x="968" d="M371 70l-383 950h284l152 -455l65 -235l66 235l154 455h268l-520 -1407h-252zM567 1599h279l-256 -413h-223z" />
<glyph unicode="&#xfe;" horiz-adv-x="1155" d="M969.5 912q97.5 -135 97.5 -398q0 -177 -54 -299.5t-146 -183t-208 -60.5q-101 0 -172.5 62.5t-98.5 156.5l20 -180v-456h-248v2002h246v-536l-21 -176q15 66 63 111.5t110.5 68.5t123.5 23q190 0 287.5 -135zM698 209q45 35 73 111t28 194q0 110 -26.5 182.5t-70.5 107 t-98 34.5q-61 0 -105 -44t-66.5 -121.5t-22.5 -174.5q0 -96 23 -169.5t66 -114t101 -40.5q53 0 98 35z" />
<glyph unicode="&#xff;" horiz-adv-x="968" d="M371 70l-383 950h284l152 -455l65 -235l66 235l154 455h268l-520 -1407h-252zM133 1505h270v-272h-270v272zM543 1505h270v-272h-270v272z" />
<glyph unicode="&#x131;" horiz-adv-x="573" d="M154 1020h266v-1020h-266v1020z" />
<glyph unicode="&#x152;" horiz-adv-x="1867" d="M1784 225v-225h-780v76q-56 -52 -137 -77.5t-191 -25.5q-190 0 -324.5 91t-203 257t-68.5 392q0 223 68 390t200.5 258t321.5 91q113 0 194.5 -25.5t139.5 -77.5v78h739v-217h-510v-340h409v-217h-409v-428h551zM839 247.5q72 59.5 114 179.5t42 292q0 169 -38.5 286.5 t-112 177.5t-174.5 60q-151 0 -233.5 -135t-82.5 -391q0 -174 40 -292.5t112.5 -177.5t169.5 -59q91 0 163 59.5z" />
<glyph unicode="&#x153;" horiz-adv-x="1736" d="M1645 426h-617q6 -124 69 -189t185 -65q63 0 136 28t108 68l82 -194q-144 -96 -369 -97q-256 0 -363 177q-48 -82 -127.5 -128t-191.5 -46q-150 0 -255 63t-160.5 182.5t-55.5 286.5t57 287t165 182.5t257 62.5q121 0 201 -45.5t125 -132.5q55 85 140.5 131.5t203.5 46.5 q220 0 316 -133.5t96 -388.5q0 -65 -2 -96zM1389 588q0 150 -38.5 206t-109.5 56q-99 0 -154 -74t-61 -190zM752 512q0 164 -48 247t-143 83q-100 0 -152.5 -79t-52.5 -251q0 -171 52.5 -249.5t152.5 -78.5q191 0 191 328z" />
<glyph unicode="&#x178;" horiz-adv-x="1101" d="M682 558v-558h-262v577l-451 850h289l300 -620l288 620h287zM238 1833h270v-272h-270v272zM648 1833h270v-272h-270v272z" />
<glyph unicode="&#x2c6;" horiz-adv-x="794" d="M547 1186l-149 196l-153 -196h-204l293 413h126l293 -413h-206z" />
<glyph unicode="&#x2dc;" horiz-adv-x="831" d="M454.5 1203.5q-37.5 17.5 -73.5 49.5q-28 26 -51 39t-55 13q-36 0 -67.5 -25.5t-51.5 -77.5l-115 88q39 89 98.5 143t139.5 54q65 0 102 -17.5t68 -48.5q26 -26 48 -37.5t60 -11.5q39 0 69 28t40 83l125 -92q-7 -50 -41.5 -98t-86 -77.5t-110.5 -29.5q-61 0 -98.5 17.5z " />
<glyph unicode="&#x300;" d="M-373 1599h279l200 -413h-223z" />
<glyph unicode="&#x301;" d="M94 1599h279l-256 -413h-223z" />
<glyph unicode="&#x302;" d="M150 1186l-149 196l-153 -196h-204l293 413h126l293 -413h-206z" />
<glyph unicode="&#x303;" d="M38.5 1203.5q-37.5 17.5 -73.5 49.5q-28 26 -51 39t-55 13q-36 0 -67.5 -25.5t-51.5 -77.5l-115 88q39 89 98.5 143t139.5 54q65 0 102 -17.5t68 -48.5q26 -26 48 -37.5t60 -11.5q39 0 69 28t40 83l125 -92q-7 -50 -41.5 -98t-86 -77.5t-110.5 -29.5q-61 0 -98.5 17.5z " />
<glyph unicode="&#x304;" d="M-328 1395h656v-187h-656v187z" />
<glyph unicode="&#x307;" d="M-143 1458h286v-272h-286v272z" />
<glyph unicode="&#x308;" d="M-340 1505h270v-272h-270v272zM70 1505h270v-272h-270v272z" />
<glyph unicode="&#x30a;" d="M-148 1233q-68 37 -108.5 102t-40.5 146q0 83 40.5 148t108.5 100.5t148 35.5t148.5 -36t109.5 -101t41 -147q0 -81 -41 -146t-109.5 -102t-148.5 -37t-148 37zM99 1373q40 38 40 110q0 75 -39.5 110t-99.5 35t-98.5 -35t-38.5 -110q0 -72 39 -110t98 -38t99 38z" />
<glyph unicode="&#x327;" d="M-160 -529.5q-57 25.5 -86 52.5l43 127q43 -23 77 -33t67 -10q54 0 88 27.5t34 64.5q0 52 -39 74t-98 22q-16 0 -34.5 -2.5t-26.5 -3.5l51 244h184l-39 -150q58 0 107.5 -28.5t77.5 -75.5t28 -101q0 -136 -87.5 -184.5t-233.5 -48.5q-56 0 -113 25.5z" />
<glyph unicode="&#x3bc;" horiz-adv-x="1142" d="M160 1020h246v-592q0 -59 21.5 -107.5t61 -76t93.5 -27.5q51 0 89.5 32.5t59.5 84t21 108.5v578h245v-721q0 -91 27 -178t61 -121h-227q-32 22 -52 74t-20 108q-7 -50 -31.5 -96t-68.5 -76t-104 -30q-85 0 -142 39.5t-57 136.5v-602h-223v1466z" />
<glyph unicode="&#x2000;" horiz-adv-x="967" />
<glyph unicode="&#x2001;" horiz-adv-x="1935" />
<glyph unicode="&#x2002;" horiz-adv-x="967" />
<glyph unicode="&#x2003;" horiz-adv-x="1935" />
<glyph unicode="&#x2004;" horiz-adv-x="645" />
<glyph unicode="&#x2005;" horiz-adv-x="483" />
<glyph unicode="&#x2006;" horiz-adv-x="322" />
<glyph unicode="&#x2007;" horiz-adv-x="322" />
<glyph unicode="&#x2008;" horiz-adv-x="241" />
<glyph unicode="&#x2009;" horiz-adv-x="387" />
<glyph unicode="&#x200a;" horiz-adv-x="107" />
<glyph unicode="&#x2010;" horiz-adv-x="931" d="M139 705h654v-201h-654v201z" />
<glyph unicode="&#x2011;" horiz-adv-x="931" d="M139 705h654v-201h-654v201z" />
<glyph unicode="&#x2012;" horiz-adv-x="931" d="M139 705h654v-201h-654v201z" />
<glyph unicode="&#x2013;" horiz-adv-x="1329" d="M139 705h1051v-201h-1051v201z" />
<glyph unicode="&#x2014;" horiz-adv-x="1951" d="M139 705h1673v-201h-1673v201z" />
<glyph unicode="&#x2018;" horiz-adv-x="598" d="M140.5 1101.5q31.5 156.5 78.5 325.5h205q-26 -124 -45 -301.5t-19 -328.5h-251q0 148 31.5 304.5z" />
<glyph unicode="&#x2019;" horiz-adv-x="598" d="M188 1098.5q19 177.5 19 328.5h252q0 -148 -32 -304.5t-79 -325.5h-205q26 124 45 301.5z" />
<glyph unicode="&#x201a;" horiz-adv-x="598" d="M193.5 47q31.5 157 78.5 326h205q-26 -124 -44.5 -301.5t-18.5 -329.5h-252q0 148 31.5 305z" />
<glyph unicode="&#x201c;" horiz-adv-x="1034" d="M576.5 1102q31.5 157 78.5 326h205q-26 -124 -44.5 -301.5t-18.5 -329.5h-252q0 148 31.5 305zM140.5 1102q31.5 157 78.5 326h205q-26 -124 -44.5 -301.5t-18.5 -329.5h-252q0 148 31.5 305z" />
<glyph unicode="&#x201d;" horiz-adv-x="993" d="M583 1098.5q19 177.5 19 328.5h252q0 -148 -32 -304.5t-79 -325.5h-205q26 124 45 301.5zM188 1098.5q19 177.5 19 328.5h252q0 -148 -32 -304.5t-79 -325.5h-205q26 124 45 301.5z" />
<glyph unicode="&#x201e;" horiz-adv-x="1034" d="M193.5 49q31.5 157 78.5 326h205q-26 -124 -44.5 -301.5t-18.5 -329.5h-252q0 148 31.5 305zM629.5 49q31.5 157 78.5 326h205q-26 -124 -44.5 -301.5t-18.5 -329.5h-252q0 148 31.5 305z" />
<glyph unicode="&#x2022;" horiz-adv-x="690" d="M253.5 473q-42.5 22 -68 66.5t-25.5 109.5q0 61 26 107t69 70t91 24q50 0 93.5 -23.5t70.5 -69t27 -108.5q0 -97 -55 -147.5t-136 -50.5q-50 0 -92.5 22z" />
<glyph unicode="&#x2026;" horiz-adv-x="1204" d="M485 305h240v-305h-240v305zM866 305h240v-305h-240v305zM98 305h240v-305h-240v305z" />
<glyph unicode="&#x202f;" horiz-adv-x="387" />
<glyph unicode="&#x2039;" horiz-adv-x="923" d="M416 509l340 -460h-287l-328 459l332 461h289z" />
<glyph unicode="&#x203a;" horiz-adv-x="913" d="M772 532l-328 -458h-286l340 460l-346 459h288z" />
<glyph unicode="&#x2044;" horiz-adv-x="460" d="M518 1634h207l-782 -1654l-205 -3z" />
<glyph unicode="&#x205f;" horiz-adv-x="483" />
<glyph unicode="&#x2081;" horiz-adv-x="563" d="M168 651l227 56v-1033h-227v977z" />
<glyph unicode="&#x2082;" horiz-adv-x="929" d="M514 15.5q-31 -18.5 -58 -33.5q-66 -36 -99 -64t-48 -70h529v-174h-738q-14 36 -14 88q0 71 21 129.5t75.5 114t151.5 109.5l53 27q76 40 121.5 70t77.5 76t32 107q0 57 -43.5 95t-121.5 38q-48 0 -89.5 -22.5t-68 -57t-29.5 -69.5l-180 65q11 63 58 124t129 100t190 39 q117 0 201.5 -36t129 -102t44.5 -157q0 -80 -31 -138.5t-77 -99.5t-127 -98l-32 -23q-26 -19 -57 -37.5z" />
<glyph unicode="&#x2083;" horiz-adv-x="868" d="M200 -333.5q-80 20.5 -151 63.5l74 170q48 -40 107 -62t124 -22q108 0 160.5 41.5t52.5 111.5q0 84 -67.5 114t-184.5 30h-79v141h90q99 0 150.5 42.5t51.5 111.5q0 67 -50.5 97t-123.5 30q-147 0 -229 -74l-66 151q53 41 139.5 69t186.5 28q115 0 200.5 -31t132 -89 t46.5 -138q0 -54 -28.5 -111.5t-78 -99.5t-108.5 -56q70 0 126.5 -33t89 -87t32.5 -113q0 -94 -55 -163.5t-150.5 -105.5t-216.5 -36q-95 0 -175 20.5z" />
<glyph unicode="&#x20ac;" horiz-adv-x="1296" d="M950.5 233.5q63.5 26.5 118.5 73.5l86 -203q-173 -123 -367 -122q-132 0 -239.5 54.5t-181 163t-102.5 267.5h-152v170h135v37q0 70 8 143h-111v168h143q60 216 205.5 341.5t364.5 125.5q88 0 158 -20t115.5 -48.5t64.5 -56.5l-92 -215q-32 51 -108 87t-167 36 q-95 0 -170 -51.5t-114 -198.5h424v-168h-452q-5 -70 -5 -137v-43h422v-170h-406q24 -129 91 -194.5t190 -65.5q78 0 141.5 26.5z" />
<glyph unicode="&#x2122;" horiz-adv-x="1701" d="M1599 1454v-807h-161v366l-211 -270l-221 269v-365h-160v807l383 -462zM102 1427h646v-159h-232v-619h-182v619h-232v159z" />
<glyph unicode="&#x25fc;" horiz-adv-x="1018" d="M0 1019h1019v-1019h-1019v1019z" />
<glyph horiz-adv-x="929" d="M514 302.5q-31 -18.5 -58 -33.5q-66 -36 -99 -64t-48 -70h529v-174h-738q-14 36 -14 88q0 71 21 129.5t75.5 114t151.5 109.5l53 27q76 40 121.5 70t77.5 76t32 107q0 57 -43.5 95t-121.5 38q-48 0 -89.5 -22.5t-68 -57t-29.5 -69.5l-180 65q11 63 58 124t129 100t190 39 q117 0 201.5 -36t129 -102t44.5 -157q0 -80 -31 -138.5t-77 -99.5t-127 -98l-32 -23q-26 -19 -57 -37.5z" />
<glyph horiz-adv-x="901" d="M862 119h-143v-184h-207v184h-489l233 815h238l-164 -530l-56 -131h242l14 288h189v-288h143v-154z" />
<glyph horiz-adv-x="563" d="M168 1470l227 56v-1033h-227v977z" />
<glyph horiz-adv-x="868" d="M200 485.5q-80 20.5 -151 63.5l74 170q48 -40 107 -62t124 -22q108 0 160.5 41.5t52.5 111.5q0 84 -67.5 114t-184.5 30h-79v141h90q99 0 150.5 42.5t51.5 111.5q0 67 -50.5 97t-123.5 30q-147 0 -229 -74l-66 151q53 41 139.5 69t186.5 28q115 0 200.5 -31t132 -89 t46.5 -138q0 -54 -28.5 -111.5t-78 -99.5t-108.5 -56q70 0 126.5 -33t89 -87t32.5 -113q0 -94 -55 -163.5t-150.5 -105.5t-216.5 -36q-95 0 -175 20.5z" />
<glyph d="M-340 1833h270v-272h-270v272zM70 1833h270v-272h-270v272z" />
<glyph d="M-315 1935h252l200 -374h-196z" />
<glyph d="M84 1935h252l-256 -374h-197z" />
<glyph d="M170 1561l-169 173l-181 -173h-205l322 374h126l314 -374h-207z" />
<glyph d="M40.5 1584q-35.5 17 -71.5 48q-27 26 -49 37.5t-53 11.5q-35 0 -67.5 -24.5t-51.5 -73.5l-106 84q34 83 93.5 135.5t133.5 52.5q60 0 96.5 -17t67.5 -48q23 -23 45.5 -34t56.5 -11q38 0 68 27.5t41 78.5l114 -88q-6 -48 -37.5 -93.5t-81 -74t-106.5 -28.5t-92.5 17z" />
</font>
</defs>
</svg>
